<?xml version="1.0" encoding="utf-8"?>
<!-- Generator: Adobe Illustrator 27.5.0, SVG Export Plug-In . SVG Version: 6.00 Build 0)  -->
<svg version="1.1" xmlns="http://www.w3.org/2000/svg" xmlns:xlink="http://www.w3.org/1999/xlink" x="0px" y="0px"
	 viewBox="0 0 1452.89 571.02" style="enable-background:new 0 0 1452.89 571.02;" xml:space="preserve">
<style type="text/css">
	.st0{display:none;}
	.st1{display:inline;fill:#7200D0;}
	.st2{fill:#FFFFFF;}
	.st3{fill:#15CC1E;}
	.st4{fill:#7200D0;}
	.st5{fill:none;stroke:#000000;stroke-width:3;stroke-miterlimit:10;}
	.st6{display:inline;fill:#048B00;}
	.st7{font-family:'BradleyHandITCTT-Bold';}
	.st8{font-size:70px;}
	.st9{display:inline;fill:#FFFFFF;stroke:#000000;stroke-miterlimit:10;}
	.st10{display:inline;fill:#FF9D00;}
	.st11{display:inline;fill:#0087E7;}
	.st12{display:inline;}
</style>
<g id="Layer_1" class="st0">
	<path class="st1" d="M1394.35,232.91c3.39,16.05,5.16,32.7,5.16,49.76c0,132.86-107.7,240.57-240.57,240.57
		c-26.98,0-52.92-4.44-77.13-12.63c-73.33,40.66-177.5,66.05-293.06,66.05c-68.84,0-133.64-9.01-190.29-24.9
		c-43.49,43.2-103.4,69.9-169.54,69.9c-132.86,0-240.57-107.7-240.57-240.57c0-7.18,0.31-14.28,0.93-21.3
		c-19.17,4.92-39.28,7.54-59.99,7.54c-132.86,0-240.58-107.71-240.58-240.58S-3.57-113.84,129.3-113.84
		c20.06,0,39.54,2.45,58.16,7.08c73.73-46.37,185.13-75.91,309.78-75.91c113.67,0,216.33,24.57,289.46,64.07
		c42.92-39.76,100.35-64.07,163.49-64.07c51.61,0,99.42,16.25,138.6,43.92c41.49-34.02,94.56-54.43,152.4-54.43
		c132.86,0,240.57,107.71,240.57,240.58C1481.76,122.06,1447.74,188.79,1394.35,232.91z"/>
</g>
<g id="Layer_2">
	<g>
		<path class="st2" d="M121.02,212.04c-3.42,0-6.59-0.67-9.52-2c-2.94-1.33-5.52-3.33-7.76-6c-2.24-2.67-4-6-5.28-10.01
			s-1.92-8.62-1.92-13.85c0-4.05,0.37-7.76,1.12-11.13c0.75-3.36,1.65-6.35,2.72-8.96c1.07-2.61,2.24-4.83,3.52-6.64
			c1.28-1.81,2.4-3.25,3.36-4.32h94.93c3.31,4.8,5.66,10.06,7.04,15.77c1.39,5.71,2.08,11.34,2.08,16.89
			c0,6.4-0.78,12.25-2.32,17.53c-1.55,5.28-3.39,9.58-5.52,12.89h-6.56v48.02c-4.16,3.63-8.91,7.1-14.25,10.41
			c-5.34,3.31-11.39,6.22-18.17,8.72c-6.78,2.51-14.38,4.51-22.81,6c-8.43,1.49-17.77,2.24-28.01,2.24
			c-9.93,0-19.64-0.91-29.14-2.72c-9.5-1.82-18.46-4.62-26.89-8.4c-8.43-3.79-16.17-8.59-23.21-14.41
			c-7.04-5.82-13.13-12.73-18.25-20.73c-5.12-8-9.1-17.15-11.93-27.45C1.41,203.58,0,192.03,0,179.22c0-17.93,2.75-33.64,8.24-47.14
			c5.5-13.5,13.18-24.79,23.05-33.86c9.87-9.07,21.66-15.9,35.38-20.49c13.71-4.59,28.84-6.88,45.38-6.88
			c8.64,0,17.07,0.72,25.29,2.16c8.22,1.44,15.9,3.36,23.05,5.76c7.15,2.4,13.66,5.18,19.53,8.32c5.87,3.15,10.83,6.48,14.89,10.01
			c0,3.52-0.22,7.36-0.64,11.53c-0.43,4.16-0.99,8.3-1.68,12.41c-0.7,4.11-1.55,8-2.56,11.69c-1.02,3.68-2.11,6.75-3.28,9.2h-84.36
			c-1.28,1.39-2.75,3.26-4.4,5.6c-1.66,2.35-3.2,5.15-4.64,8.4c-1.44,3.26-2.67,6.99-3.68,11.21c-1.02,4.22-1.52,8.88-1.52,14.01
			c0,6.51,0.83,12.14,2.48,16.89c1.65,4.75,3.84,8.7,6.56,11.85c2.72,3.15,5.87,5.5,9.44,7.04c3.57,1.55,7.28,2.32,11.13,2.32
			c1.92,0,3.25-0.35,4-1.04c0.75-0.69,1.12-1.52,1.12-2.48v-3.68H121.02z"/>
		<path class="st2" d="M245.89,107.5c6.62,0,12.14,1.07,16.57,3.2c4.43,2.14,7.92,5.12,10.49,8.96c-1.39,1.5-2.7,3.31-3.92,5.44
			c-1.23,2.14-2.3,4.24-3.2,6.32c-0.91,2.08-1.63,4.06-2.16,5.92c-0.54,1.87-0.8,3.34-0.8,4.4c0,1.28,0.48,2.43,1.44,3.44
			c0.96,1.02,2.45,1.52,4.48,1.52c2.03-7.9,4.88-14.51,8.56-19.85c3.68-5.33,7.9-9.6,12.65-12.81c4.75-3.2,9.87-5.47,15.37-6.8
			c5.5-1.33,11.07-2,16.73-2c4.59,0,8.8,0.3,12.65,0.88c3.84,0.59,7.31,1.36,10.41,2.32c3.09,0.96,5.82,2.06,8.16,3.28
			c2.35,1.23,4.32,2.43,5.92,3.6c1.71,4.48,2.93,9.23,3.68,14.25c0.75,5.02,1.12,9.92,1.12,14.73c0,8.64-0.78,15.85-2.32,21.61
			c-1.55,5.76-3.23,10.51-5.04,14.25c-1.71,0.86-3.84,1.71-6.4,2.56c-2.56,0.86-5.36,1.6-8.4,2.24c-3.04,0.64-6.27,1.15-9.69,1.52
			c-3.42,0.38-6.78,0.56-10.08,0.56c-3.52,0-6.64-0.11-9.37-0.32c-2.72-0.21-5.2-0.51-7.44-0.88c-2.24-0.37-4.3-0.8-6.16-1.28
			c-1.87-0.48-3.76-0.93-5.68-1.36c-0.86,0.86-1.28,2.08-1.28,3.68c0,1.5,0.99,2.67,2.96,3.52c1.97,0.86,5.52,1.76,10.65,2.72v80.36
			c-3.63,2.35-7.31,4.24-11.05,5.68c-3.74,1.44-7.39,2.56-10.97,3.36c-3.58,0.8-6.99,1.33-10.25,1.6c-3.26,0.27-6.27,0.4-9.04,0.4
			c-5.98,0-11.58-0.56-16.81-1.68c-5.23-1.12-9.79-2.83-13.69-5.12c-3.9-2.29-6.96-5.2-9.2-8.72c-2.24-3.52-3.36-7.74-3.36-12.65
			v-82.44c-3.2-4.48-5.58-9.55-7.12-15.21c-1.55-5.66-2.32-11.58-2.32-17.77c0-5.12,0.78-10.78,2.32-16.97
			c1.55-6.19,3.92-11.69,7.12-16.49H245.89z"/>
		<path class="st2" d="M371.87,128.47c2.13-1.39,4.27-2.51,6.4-3.36c2.13-0.85,4.43-1.92,6.88-3.2c-2.03-1.07-4.11-2.56-6.24-4.48
			c-2.14-1.92-4.08-4.24-5.84-6.96c-1.76-2.72-3.2-5.84-4.32-9.37c-1.12-3.52-1.68-7.47-1.68-11.85c0-6.83,1.2-13.05,3.6-18.65
			c2.4-5.6,5.68-10.41,9.84-14.41c4.16-4,9.02-7.12,14.57-9.36c5.55-2.24,11.53-3.36,17.93-3.36c6.51,0,12.51,1.18,18.01,3.52
			c5.5,2.35,10.27,5.55,14.33,9.6c4.05,4.06,7.23,8.88,9.52,14.49c2.29,5.6,3.44,11.66,3.44,18.17c0,5.55-0.94,10.7-2.8,15.45
			c-1.87,4.75-4.35,8.99-7.44,12.73c-3.1,3.74-6.72,6.86-10.89,9.36c-4.16,2.51-8.48,4.24-12.97,5.2c0,1.6,0.35,3.02,1.04,4.24
			c0.69,1.23,1.89,1.84,3.6,1.84c5.34,0,10.89-2.13,16.65-6.4c0.32,0.21,0.85,0.59,1.6,1.12c0.75,0.54,1.55,1.18,2.4,1.92
			c0.85,0.75,1.65,1.47,2.4,2.16c0.75,0.7,1.23,1.2,1.44,1.52v63.39c0,7.36,0.8,13.69,2.4,18.97c1.6,5.28,4.64,9.31,9.12,12.09
			c0.1,0.86,0.16,1.9,0.16,3.12c0,1.23,0,2.16,0,2.8c0,8.11-1.12,15.1-3.36,20.97c-2.24,5.87-5.39,10.7-9.44,14.49
			c-4.06,3.79-8.88,6.59-14.49,8.4c-5.6,1.81-11.71,2.72-18.33,2.72c-5.12,0-10.49-0.86-16.09-2.56s-10.73-4.59-15.37-8.64
			c-4.64-4.05-8.48-9.47-11.53-16.25c-3.04-6.78-4.56-15.23-4.56-25.37V128.47z"/>
		<path class="st2" d="M485.85,181.3h9.92c2.77,0,4.8-0.48,6.08-1.44s1.92-2.24,1.92-3.84c0-0.64-0.11-1.28-0.32-1.92H467.6
			c-1.18-3.84-2.06-8.08-2.64-12.73c-0.59-4.64-0.88-9.36-0.88-14.17c0-3.09,0.19-6.64,0.56-10.65c0.37-4,0.88-7.34,1.52-10.01
			c4.48-2.77,8.94-5.76,13.37-8.96c4.43-3.2,8.35-6.08,11.77-8.64c0.96-2.24,2.08-5.18,3.36-8.8c1.28-3.63,2.56-7.42,3.84-11.37
			c1.28-3.95,2.51-7.76,3.68-11.45c1.17-3.68,2.19-6.75,3.04-9.21c3.41-0.85,7.95-1.6,13.61-2.24c5.66-0.64,11.42-0.96,17.29-0.96
			c4.59,0,9.2,0.27,13.85,0.8c4.64,0.54,9.74,1.39,15.29,2.56v39.22h48.02c3.09,4.7,5.42,9.95,6.96,15.77
			c1.55,5.82,2.32,11.61,2.32,17.37c0,5.44-0.78,11.23-2.32,17.37c-1.55,6.14-3.87,11.45-6.96,15.93h-43.22v24.17
			c0,7.36,1.49,12.62,4.48,15.77c2.99,3.15,7.2,4.72,12.65,4.72h6.88c0.85,3.2,1.63,6.62,2.32,10.25c0.69,3.63,1.04,7.26,1.04,10.89
			c0,14.83-4.64,26.15-13.93,33.94c-9.28,7.79-22.52,11.69-39.7,11.69c-8.64,0-16.52-1.18-23.61-3.52
			c-7.1-2.35-13.21-5.92-18.33-10.73c-5.12-4.8-9.07-10.81-11.85-18.01c-2.78-7.2-4.16-15.71-4.16-25.53V181.3z"/>
		<path class="st2" d="M611.84,181.3h9.92c2.77,0,4.8-0.48,6.08-1.44s1.92-2.24,1.92-3.84c0-0.64-0.11-1.28-0.32-1.92h-35.86
			c-1.18-3.84-2.06-8.08-2.64-12.73c-0.59-4.64-0.88-9.36-0.88-14.17c0-3.09,0.19-6.64,0.56-10.65c0.37-4,0.88-7.34,1.52-10.01
			c4.48-2.77,8.94-5.76,13.37-8.96c4.43-3.2,8.35-6.08,11.77-8.64c0.96-2.24,2.08-5.18,3.36-8.8c1.28-3.63,2.56-7.42,3.84-11.37
			c1.28-3.95,2.51-7.76,3.68-11.45c1.17-3.68,2.19-6.75,3.04-9.21c3.41-0.85,7.95-1.6,13.61-2.24c5.66-0.64,11.42-0.96,17.29-0.96
			c4.59,0,9.21,0.27,13.85,0.8c4.64,0.54,9.74,1.39,15.29,2.56v39.22h48.02c3.09,4.7,5.42,9.95,6.96,15.77
			c1.55,5.82,2.32,11.61,2.32,17.37c0,5.44-0.78,11.23-2.32,17.37c-1.55,6.14-3.87,11.45-6.96,15.93h-43.22v24.17
			c0,7.36,1.49,12.62,4.48,15.77c2.99,3.15,7.2,4.72,12.65,4.72h6.88c0.85,3.2,1.63,6.62,2.32,10.25c0.69,3.63,1.04,7.26,1.04,10.89
			c0,14.83-4.64,26.15-13.93,33.94c-9.29,7.79-22.52,11.69-39.7,11.69c-8.64,0-16.52-1.18-23.61-3.52
			c-7.1-2.35-13.21-5.92-18.33-10.73c-5.12-4.8-9.07-10.81-11.85-18.01c-2.78-7.2-4.16-15.71-4.16-25.53V181.3z"/>
		<path class="st2" d="M771.6,107.5c7.58,0,13.85,1.1,18.81,3.28c4.96,2.19,8.96,5.04,12.01,8.56c3.04,3.52,5.28,7.52,6.72,12.01
			c1.44,4.48,2.43,9.07,2.96,13.77c-0.32,2.46-0.7,5.74-1.12,9.85c-0.43,4.11-0.83,8.7-1.2,13.77c-0.38,5.07-0.67,10.43-0.88,16.09
			c-0.22,5.66-0.32,11.26-0.32,16.81c0,1.18,0,2.43,0,3.76c0,1.34,0.05,2.54,0.16,3.6c0.64,0.32,1.25,0.54,1.84,0.64
			c0.58,0.11,1.15,0.16,1.68,0.16c1.71,0,2.91-0.64,3.6-1.92c0.69-1.28,1.04-2.99,1.04-5.12c0-8.96,0.27-17.85,0.8-26.65
			c0.53-8.8,1.2-17.1,2-24.89c0.8-7.79,1.71-14.83,2.72-21.13c1.01-6.3,1.95-11.42,2.8-15.37c4.7-3.41,10-5.84,15.93-7.28
			c5.92-1.44,12.41-2.16,19.45-2.16c7.36,0,13.82,0.83,19.37,2.48c5.55,1.66,10.17,3.82,13.85,6.48c3.68,2.67,6.46,5.71,8.32,9.12
			c1.87,3.42,2.8,6.94,2.8,10.57c0,0.64-0.22,2.75-0.64,6.32c-0.43,3.58-1.1,8.3-2,14.17c-0.91,5.87-2.03,12.73-3.36,20.57
			c-1.33,7.84-2.94,16.25-4.8,25.21c-1.87,8.96-3.95,18.38-6.24,28.25c-2.3,9.87-4.83,19.82-7.6,29.85
			c-4.7,16.86-10.38,30.6-17.05,41.22c-6.67,10.62-13.98,18.94-21.93,24.97c-7.95,6.03-16.3,10.17-25.05,12.41
			c-8.75,2.24-17.56,3.36-26.41,3.36c-9.07,0-16.92-1.15-23.53-3.44c-6.62-2.3-12.09-5.39-16.41-9.28c-4.32-3.9-7.55-8.4-9.68-13.53
			c-2.14-5.12-3.2-10.51-3.2-16.17c0-5.44,0.77-10.65,2.32-15.61c1.55-4.96,4.13-10.11,7.76-15.45c0.85-0.21,2-0.37,3.44-0.48
			c1.44-0.11,2.8-0.16,4.08-0.16c3.2,0,6.4,0.19,9.61,0.56c3.2,0.38,5.76,0.72,7.68,1.04l25.13,4.64c1.17,0.21,2.35,0.43,3.52,0.64
			c1.17,0.22,2.35,0.32,3.52,0.32c1.81,0,3.33-0.37,4.56-1.12c1.23-0.75,1.84-2.51,1.84-5.28l-37.78-7.2
			c-3.95-1.6-8.03-4.32-12.25-8.16c-4.22-3.84-8.19-9.15-11.93-15.93c-3.74-6.78-7.12-15.23-10.17-25.37
			c-3.04-10.14-5.36-22.25-6.96-36.34c-2.88-3.73-5.36-8.35-7.44-13.85c-2.08-5.5-3.12-11.66-3.12-18.49
			c0-5.87,0.75-11.74,2.24-17.61c1.5-5.87,3.95-11.37,7.36-16.49H771.6z"/>
		<path class="st2" d="M910.39,97.9c0-2.45,2-5.2,6-8.24s9.79-5.9,17.37-8.56c7.58-2.67,16.83-4.91,27.77-6.72
			c10.94-1.81,23.29-2.72,37.06-2.72c16.97,0,31.43,1.68,43.38,5.04c11.95,3.36,21.69,7.87,29.21,13.53
			c7.52,5.66,13.02,12.19,16.49,19.61c3.47,7.42,5.2,15.18,5.2,23.29c0,3.1-0.27,6.22-0.8,9.36c-0.54,3.15-1.33,6.16-2.4,9.04
			c-1.07,2.88-2.43,5.58-4.08,8.08c-1.66,2.51-3.55,4.56-5.68,6.16c-2.99-1.49-5.92-2.59-8.8-3.28c-2.88-0.69-5.39-1.04-7.52-1.04
			c-2.24,0-4.06,0.43-5.44,1.28c-1.39,0.86-2.08,2.67-2.08,5.44c8.32,0.32,15.53,2.03,21.61,5.12c6.08,3.1,11.1,7.07,15.05,11.93
			c3.95,4.86,6.88,10.41,8.8,16.65s2.88,12.73,2.88,19.45c0,11.53-2.4,21.29-7.2,29.3c-4.8,8-11.77,14.49-20.89,19.45
			c-9.12,4.96-20.33,8.56-33.62,10.81c-13.29,2.24-28.41,3.36-45.38,3.36c-12.17,0-22.68-0.19-31.54-0.56
			c-8.86-0.38-16.49-0.99-22.89-1.84c-11.31-1.49-19.56-5.09-24.73-10.81c-5.18-5.71-7.76-14.49-7.76-26.33V97.9z M997.32,159.53
			c0.32,0.22,0.83,0.35,1.52,0.4c0.69,0.06,1.15,0.08,1.36,0.08c2.56,0,4.38-0.8,5.44-2.4c1.07-1.6,1.6-4.21,1.6-7.84v-0.96
			c0-3.73-0.46-6.46-1.36-8.16c-0.91-1.71-2.59-2.56-5.04-2.56c-0.54,0-1.18,0.05-1.92,0.16c-0.75,0.11-1.34,0.27-1.76,0.48
			c0.1,0.86,0.16,1.76,0.16,2.72c0,0.96,0,1.98,0,3.04V159.53z M997.32,219.88c0.32,0.21,0.83,0.35,1.52,0.4
			c0.69,0.06,1.15,0.08,1.36,0.08c2.56,0,4.38-0.67,5.44-2c1.07-1.33,1.6-3.81,1.6-7.44v-3.04c0-3.73-0.46-6.51-1.36-8.32
			c-0.91-1.81-2.59-2.72-5.04-2.72c-0.54,0-1.18,0.06-1.92,0.16c-0.75,0.11-1.34,0.27-1.76,0.48c0.1,0.86,0.16,1.76,0.16,2.72
			s0,1.98,0,3.04V219.88z"/>
		<path class="st2" d="M1149.39,107.5c7.58,0,13.85,1.1,18.81,3.28c4.96,2.19,8.96,5.04,12.01,8.56c3.04,3.52,5.28,7.52,6.72,12.01
			c1.44,4.48,2.43,9.07,2.96,13.77c-0.32,2.46-0.7,5.74-1.12,9.85c-0.43,4.11-0.83,8.7-1.2,13.77c-0.38,5.07-0.67,10.43-0.88,16.09
			c-0.22,5.66-0.32,11.26-0.32,16.81c0,1.18,0,2.43,0,3.76c0,1.34,0.05,2.54,0.16,3.6c0.64,0.32,1.25,0.54,1.84,0.64
			c0.58,0.11,1.15,0.16,1.68,0.16c1.71,0,2.91-0.64,3.6-1.92c0.69-1.28,1.04-2.99,1.04-5.12c0-8.96,0.27-17.85,0.8-26.65
			c0.53-8.8,1.2-17.1,2-24.89c0.8-7.79,1.71-14.83,2.72-21.13c1.01-6.3,1.95-11.42,2.8-15.37c4.7-3.41,10-5.84,15.93-7.28
			c5.92-1.44,12.41-2.16,19.45-2.16c7.36,0,13.82,0.83,19.37,2.48c5.55,1.66,10.17,3.82,13.85,6.48c3.68,2.67,6.46,5.71,8.32,9.12
			c1.87,3.42,2.8,6.94,2.8,10.57c0,0.64-0.22,2.75-0.64,6.32c-0.43,3.58-1.1,8.3-2,14.17c-0.91,5.87-2.03,12.73-3.36,20.57
			c-1.33,7.84-2.94,16.25-4.8,25.21c-1.87,8.96-3.95,18.38-6.24,28.25c-2.3,9.87-4.83,19.82-7.6,29.85
			c-4.7,16.86-10.38,30.6-17.05,41.22c-6.67,10.62-13.98,18.94-21.93,24.97c-7.95,6.03-16.3,10.17-25.05,12.41
			c-8.75,2.24-17.56,3.36-26.41,3.36c-9.07,0-16.92-1.15-23.53-3.44c-6.62-2.3-12.09-5.39-16.41-9.28c-4.32-3.9-7.55-8.4-9.68-13.53
			c-2.14-5.12-3.2-10.51-3.2-16.17c0-5.44,0.77-10.65,2.32-15.61c1.55-4.96,4.13-10.11,7.76-15.45c0.85-0.21,2-0.37,3.44-0.48
			c1.44-0.11,2.8-0.16,4.08-0.16c3.2,0,6.4,0.19,9.61,0.56c3.2,0.38,5.76,0.72,7.68,1.04l25.13,4.64c1.17,0.21,2.35,0.43,3.52,0.64
			c1.17,0.22,2.35,0.32,3.52,0.32c1.81,0,3.33-0.37,4.56-1.12c1.23-0.75,1.84-2.51,1.84-5.28l-37.78-7.2
			c-3.95-1.6-8.03-4.32-12.25-8.16c-4.22-3.84-8.19-9.15-11.93-15.93c-3.74-6.78-7.12-15.23-10.17-25.37
			c-3.04-10.14-5.36-22.25-6.96-36.34c-2.88-3.73-5.36-8.35-7.44-13.85c-2.08-5.5-3.12-11.66-3.12-18.49
			c0-5.87,0.75-11.74,2.24-17.61c1.5-5.87,3.95-11.37,7.36-16.49H1149.39z"/>
		<path class="st2" d="M1298.75,181.3h9.92c2.77,0,4.8-0.48,6.08-1.44c1.28-0.96,1.92-2.24,1.92-3.84c0-0.64-0.11-1.28-0.32-1.92
			h-35.86c-1.17-3.84-2.06-8.08-2.64-12.73c-0.59-4.64-0.88-9.36-0.88-14.17c0-3.09,0.19-6.64,0.56-10.65
			c0.37-4,0.88-7.34,1.52-10.01c4.48-2.77,8.94-5.76,13.37-8.96c4.43-3.2,8.35-6.08,11.77-8.64c0.96-2.24,2.08-5.18,3.36-8.8
			c1.28-3.63,2.56-7.42,3.84-11.37c1.28-3.95,2.51-7.76,3.68-11.45c1.17-3.68,2.19-6.75,3.04-9.21c3.41-0.85,7.95-1.6,13.61-2.24
			c5.66-0.64,11.42-0.96,17.29-0.96c4.59,0,9.21,0.27,13.85,0.8c4.64,0.54,9.74,1.39,15.29,2.56v39.22h27.69
			c3.09,4.7,5.42,9.95,6.96,15.77c1.55,5.82,2.32,11.61,2.32,17.37c0,5.44-0.78,11.23-2.32,17.37c-1.55,6.14-3.87,11.45-6.96,15.93
			h-22.89v24.17c0,7.36,1.49,12.62,4.48,15.77c2.99,3.15,7.2,4.72,12.65,4.72h6.88c0.85,3.2,1.63,6.62,2.32,10.25
			c0.69,3.63,1.04,7.26,1.04,10.89c0,14.83-4.64,26.15-13.93,33.94c-9.29,7.79-22.52,11.69-39.7,11.69
			c-8.64,0-16.52-1.18-23.61-3.52c-7.1-2.35-13.21-5.92-18.33-10.73c-5.12-4.8-9.07-10.81-11.85-18.01
			c-2.78-7.2-4.16-15.71-4.16-25.53V181.3z"/>
	</g>
	<g>
		<path d="M67.7,454.42c0,1.38-0.42,2.07-1.25,2.07c-0.83,0-1.41-1.25-1.75-3.74c-1-7.17-3.04-12.41-6.11-15.69
			c-2-2.09-5.07-3.39-9.23-3.89c-1.5-0.2-4.82-0.3-9.98-0.3c-3.82,0-8.4,0.15-13.71,0.45v43.39c10.64,0.1,17.21-0.71,19.7-2.44
			c2.49-1.72,3.99-6.57,4.49-14.54c0.17-2.26,0.66-3.4,1.5-3.4c0.83,0,1.25,0.74,1.25,2.21c0,0.89-0.04,1.62-0.12,2.21
			c-0.25,6.79-0.37,13.09-0.37,18.89c0,7.48,0.13,13.38,0.4,17.71c0.07,0.39,0.1,0.98,0.1,1.77c0,1.18-0.42,1.77-1.24,1.77
			c-0.66,0-1.08-0.29-1.24-0.89c-0.17-0.59-0.45-2.85-0.87-6.79c-0.66-6-1.97-9.74-3.91-11.22c-1.94-1.48-5.81-2.21-11.6-2.21
			c-3.06,0-5.75,0.1-8.07,0.29v15.05v28.93c0,2.86,0.94,4.67,2.83,5.46c0.9,0.39,2.92,0.54,6.04,0.44c1.31,0,1.97,0.39,1.97,1.18
			c0,0.89-0.83,1.33-2.49,1.33h-1.25c-1.17,0-2.74,0-4.74,0c-1.91,0-3.2,0-3.87,0H5.61c-1.58,0-2.37-0.39-2.37-1.19
			c0-0.79,1.43-1.28,4.3-1.48c2.87-0.2,4.55-0.67,5.05-1.41c0.5-0.74,0.75-3.04,0.75-6.88v-84.97c-0.09-1.78-0.53-2.88-1.33-3.33
			c-0.8-0.44-2.97-0.71-6.5-0.81c-1.35,0-2.02-0.49-2.02-1.47c0-0.89,0.75-1.33,2.24-1.33h2c-0.17,0,3.84,0,12.03,0
			c8.19,0,14.9,0,20.14,0c14.05,0,22.65-0.29,25.81-0.89c0.08,1.28,0.33,4.97,0.75,11.07c0.25,4.13,0.58,7.82,1,11.07
			C67.62,452.26,67.7,453.44,67.7,454.42z"/>
		<path d="M129.92,466.38c0,0.69-0.67,1.03-1.99,1.03h-0.62c-0.83,0-1.66,0-2.49,0c-1.33,0-2,0.98-2,2.94v27.19
			c0,9.5-0.17,15.62-0.5,18.37c-0.33,2.75-1.21,5.49-2.62,8.23c-3.24,6.17-8.98,9.26-17.21,9.26c-6.82,0-12.26-1.87-16.33-5.6
			c-3.74-3.44-5.61-10.06-5.61-19.88v-31.08c0-5.3-0.15-8.2-0.44-8.69c-0.29-0.49-1.52-0.74-3.68-0.74c-1.75,0-2.62-0.39-2.62-1.18
			c0-0.69,0.58-1.03,1.75-1.03h1.75c0.58,0,1.29,0,2.12,0c0.83,0,1.45,0,1.87,0h10.47c0.58,0,1.29,0,2.12,0c0.75,0,1.2,0,1.37,0
			c1.5,0,2.24,0.39,2.24,1.18c0,0.98-1.54,1.43-4.61,1.33c-0.92,0-1.46,0.17-1.62,0.52c-0.17,0.34-0.25,1.45-0.25,3.31v35.34
			c0,9.62,1.04,15.86,3.12,18.7c2.33,3.24,5.78,4.86,10.35,4.86c6.4,0,10.76-3.13,13.09-9.4c1.16-3.13,1.75-8.18,1.75-15.13
			c0,0.1,0-0.44,0-1.62c0-1.08,0-2.2,0-3.38v-30.56c0-1.27-0.21-2.05-0.63-2.35c-0.42-0.3-1.59-0.44-3.49-0.44
			c-1.91,0-2.86-0.44-2.86-1.32c0-0.68,0.5-1.03,1.5-1.03c0.42,0,0.83,0,1.25,0h5.74c0.08,0,0.54,0,1.37,0c0.91,0,2.24,0,3.99,0
			h1.75C129.25,465.19,129.92,465.59,129.92,466.38z"/>
		<path d="M185.78,519.07c0,5.51-0.08,10.14-0.25,13.88c-0.5,0.1-1.12,0.15-1.87,0.15c-0.08,0-0.73-0.07-1.93-0.22
			c-1.21-0.15-2.76-0.22-4.68-0.22h-5.86l-21.32-0.29h-10.22c-1.08,0-1.62-0.32-1.62-0.97c0-0.55,1.62-0.97,4.86-1.25
			c0.91-0.1,1.47-0.34,1.68-0.74c0.21-0.39,0.31-1.48,0.31-3.26v-49.56c0-5.52-0.37-8.43-1.12-8.73c-0.33-0.2-1.06-0.3-2.18-0.3
			c-1.12,0-1.85-0.05-2.18-0.15c-0.92,0-1.37-0.39-1.37-1.18c0-0.69,0.54-1.04,1.63-1.04h17.3c0.92,0,1.88,0,2.88,0
			c1.59,0,2.38,0.42,2.38,1.25c0,0.55-1.37,0.88-4.11,0.97c-1.33,0.1-2.12,0.45-2.37,1.04c-0.25,0.59-0.37,2.71-0.37,6.36v54.89
			c3.31,0.1,5.71,0.15,7.2,0.15c8.94,0,14.52-1.03,16.76-3.1c1.82-1.67,2.98-5.21,3.48-10.63c0.17-2.36,0.62-3.54,1.37-3.54
			C185.24,512.57,185.78,514.74,185.78,519.07z"/>
		<path d="M241.14,519.07c0,5.51-0.08,10.14-0.25,13.88c-0.5,0.1-1.12,0.15-1.87,0.15c-0.08,0-0.73-0.07-1.93-0.22
			c-1.21-0.15-2.76-0.22-4.68-0.22h-5.86l-21.32-0.29H195c-1.08,0-1.62-0.32-1.62-0.97c0-0.55,1.62-0.97,4.86-1.25
			c0.91-0.1,1.47-0.34,1.68-0.74c0.21-0.39,0.31-1.48,0.31-3.26v-49.56c0-5.52-0.37-8.43-1.12-8.73c-0.33-0.2-1.06-0.3-2.18-0.3
			c-1.12,0-1.85-0.05-2.18-0.15c-0.92,0-1.37-0.39-1.37-1.18c0-0.69,0.54-1.04,1.63-1.04h17.3c0.92,0,1.88,0,2.88,0
			c1.59,0,2.38,0.42,2.38,1.25c0,0.55-1.37,0.88-4.11,0.97c-1.33,0.1-2.12,0.45-2.37,1.04c-0.25,0.59-0.37,2.71-0.37,6.36v54.89
			c3.31,0.1,5.71,0.15,7.2,0.15c8.94,0,14.52-1.03,16.76-3.1c1.82-1.67,2.98-5.21,3.48-10.63c0.17-2.36,0.62-3.54,1.37-3.54
			C240.59,512.57,241.14,514.74,241.14,519.07z"/>
		<path d="M331.28,503.57c0,8.46-2.72,15.67-8.17,21.62c-5.45,5.95-11.99,8.93-19.64,8.93c-4.49,0-9.85-1.62-16.08-4.87
			c-1.66-0.89-2.91-1.33-3.74-1.33c-1,0-1.62,1.36-1.87,4.09c-0.08,1.41-0.62,2.11-1.62,2.11c-0.83,0-1.25-0.59-1.25-1.77
			c0-0.79,0.04-1.38,0.12-1.77c0.66-6,1-11.56,1-16.68c0-0.98-0.08-3.74-0.25-8.27c-0.08-0.59-0.12-1.38-0.12-2.36
			c0-1.48,0.5-2.21,1.5-2.21c0.83,0,1.41,1.19,1.75,3.58c2.16,17.69,9.18,26.53,21.07,26.53c5.07,0,9-1.7,11.78-5.09
			c2.78-3.4,4.18-8.19,4.18-14.39c0-5.51-1.35-10.21-4.05-14.1c-2.7-3.89-7.34-7.75-13.9-11.59c-7.9-4.62-13.38-9.1-16.46-13.43
			c-3.08-4.33-4.61-9.69-4.61-16.09c0-8.17,2.22-14.91,6.67-20.22c4.45-5.31,10.08-7.97,16.9-7.97c2.82,0,6.73,1.13,11.72,3.39
			c1.75,0.79,3.03,1.18,3.87,1.18c0.91,0,1.52-0.2,1.81-0.59c0.29-0.39,0.56-1.42,0.81-3.1c0.17-0.98,0.62-1.48,1.37-1.48
			c0.83,0,1.25,0.59,1.25,1.77c0,0.79-0.04,1.38-0.12,1.77c-0.25,2.36-0.37,5.22-0.37,8.56c0,4.72,0.21,8.46,0.62,11.22l0.12,2.36
			c0.08,1.08-0.29,1.62-1.12,1.62c-0.92,0-1.54-1.13-1.87-3.39c-0.92-5.8-3.08-10.65-6.48-14.54c-3.41-3.89-7.23-5.83-11.47-5.83
			c-4.16,0-7.46,1.58-9.91,4.72c-2.45,3.15-3.68,7.43-3.68,12.84c0,6.3,1.79,11.37,5.36,15.2c1.99,2.17,6.32,5.22,12.97,9.15
			c7.81,4.63,13.42,9.32,16.83,14.1C329.57,492.03,331.28,497.47,331.28,503.57z"/>
		<path d="M390,483.1c0,1.35-0.5,2.02-1.5,2.02c-1.08,0-1.66-0.9-1.75-2.71c-0.25-3.9-0.96-7.09-2.12-9.57
			c-1.58-3.42-5.2-5.14-10.85-5.14c-0.83,0-2.12,0.05-3.86,0.15v59.33c0,1.87,1.2,2.86,3.62,2.95c2.41,0.1,3.62,0.49,3.62,1.18
			c0,0.69-0.71,1.03-2.12,1.03h-0.87c-0.75,0-1.91,0-3.49,0c-1.58,0-2.7,0-3.37,0c-0.17,0-1.12,0-2.87,0s-3.99,0-6.73,0h-2.99
			c-1.66,0-2.49-0.34-2.49-1.04c0-0.69,1.37-1.08,4.11-1.18c1,0,1.66-0.1,2-0.29c0.66-0.2,1.04-0.71,1.12-1.55
			c0.08-0.84,0.12-3.33,0.12-7.47V467.7c-6.48-0.1-10.7,0.68-12.66,2.34c-1.95,1.66-3.26,5.56-3.93,11.71
			c-0.25,2.25-0.79,3.37-1.62,3.37c-0.75,0-1.12-1.11-1.12-3.35c0-2.81,0.37-8.34,1.12-16.58h29.05c2.58,0,7.81-0.08,15.71-0.25
			c0.66,0,1.54-0.16,2.62-0.49l0.12,3.04l0.37,5.2l0.37,6.07l0.25,2.6C389.96,482.23,390,482.81,390,483.1z"/>
		<path d="M453.59,531.61c0,0.59-0.83,0.89-2.49,0.89h-0.87h-7.73H439c-1.41,0-3.37,0-5.86,0h-3.74h-2.24h-0.62
			c-1.5,0-2.24-0.39-2.24-1.17c0-0.78,1.5-1.22,4.49-1.32c3.57-0.1,5.36-0.58,5.36-1.46c0-0.19-0.25-1.12-0.75-2.79
			c-0.17-0.78-1.12-4.05-2.87-9.82l-1.5-4.98H411.2c-3.41,10.14-5.11,15.99-5.11,17.56c0,0.89,0.5,1.38,1.5,1.48l1.62,0.15h1.87
			l1.12,0.44c1,0,1.5,0.3,1.5,0.9c0,0.68-0.87,1.02-2.62,1.02c-0.25,0-1.73-0.07-4.43-0.22c-2.7-0.15-5.09-0.22-7.17-0.22h-1.12
			l-1.12,0.22l-1.37,0.22h-0.25c-1.33,0-2-0.29-2-0.89c0-0.69,0.54-1.08,1.62-1.18c1.5-0.1,2.49-0.2,2.99-0.3
			c1.41-0.29,2.33-0.74,2.74-1.33c0.5-0.29,2.53-5.92,6.11-16.87c1.41-4.44,2.78-8.58,4.12-12.43c0.5-1.38,0.83-2.42,1-3.11
			c0.17-0.69,0.5-1.73,1-3.11c1.41-4.04,3.41-10.16,5.99-18.35l1.88-6.2l0.86-2.66c0.5-1.48,1-2.21,1.5-2.21
			c0.25,0,0.79,1.38,1.62,4.13c2.49,7.18,8.93,26.18,19.32,56.97c1,3.05,1.95,4.67,2.87,4.87c0.25,0.1,1.58,0.25,3.99,0.44
			C452.8,530.38,453.59,530.83,453.59,531.61z M428.28,508.44l-8.02-25.22c-2.02,5.9-4.8,14.31-8.33,25.22H428.28z"/>
		<path d="M506.83,510.36c0,0.29-0.04,1.13-0.12,2.51c-0.33,5.31-0.5,9.05-0.5,11.22c0,1.48,0.12,3.64,0.37,6.49v1.03
			c0,0.98-0.33,1.48-1,1.48c-0.67,0-1.33-0.83-2-2.51l-1.12-2.8c-0.08-0.2-0.21-0.49-0.37-0.89c-3.74,4.33-8.9,6.49-15.46,6.49
			c-8.4,0-15.38-3.31-20.95-9.94c-5.57-6.63-8.35-14.95-8.35-24.96c0-10.01,2.58-18.24,7.73-24.67c5.15-6.43,11.72-9.65,19.7-9.65
			c6.23,0,11.47,1.92,15.71,5.76c0.33,0.39,0.66,0.59,1,0.59c0.42,0,0.79-0.64,1.12-1.92c0.58-2.16,1.29-3.25,2.12-3.25
			c0.58,0,0.87,0.39,0.87,1.18c0,0.1-0.08,0.54-0.25,1.33c-0.5,3.35-0.79,8.32-0.87,14.91c-0.08,4.13-0.54,6.2-1.37,6.2
			c-0.67,0-1.12-0.73-1.37-2.2c-0.83-5.28-1.83-9.19-2.99-11.73c-2.66-5.57-7.03-8.36-13.09-8.36c-5.07,0-9.1,2.88-12.09,8.65
			c-2.99,5.77-4.49,13.58-4.49,23.45c0,9.87,1.66,17.69,4.99,23.46c3.32,5.77,7.81,8.65,13.47,8.65c4.32,0,7.92-1.72,10.79-5.17
			c2.87-3.45,4.76-8.24,5.67-14.36c0.42-2.53,0.96-3.79,1.62-3.79C506.41,507.55,506.83,508.49,506.83,510.36z"/>
		<path d="M577.4,531.17c0,0.59-0.15,0.94-0.44,1.04c-0.29,0.1-1.27,0.15-2.93,0.15h-2.49h-18.33c-1.5,0-2.24-0.28-2.24-0.83
			c0-0.65,1.37-1.11,4.11-1.38c1.66-0.2,2.49-0.59,2.49-1.19c0-0.4-0.96-1.83-2.87-4.3c-1.75-2.17-8.44-10.83-20.07-25.95v26.57
			c0,2.36,0.25,3.74,0.75,4.13c0.5,0.39,2.12,0.64,4.86,0.74c0.91,0,1.37,0.39,1.37,1.18c0,0.69-0.62,1.03-1.87,1.03h-0.87
			c-0.83,0-4.82,0-11.97,0c-3.16,0-5.49,0-6.98,0h-0.87c-1.17,0-1.75-0.39-1.75-1.18c0-0.89,1.2-1.28,3.62-1.18
			c1.66,0,2.62-0.3,2.87-0.89c0.25-0.59,0.37-2.71,0.37-6.35v-49.45c0-2.75-0.04-4.28-0.13-4.58c-0.26-0.79-1.44-1.18-3.56-1.18
			s-3.17-0.44-3.17-1.33c0-0.69,0.58-1.03,1.76-1.03c0.17,0,0.58,0,1.25,0c0.75,0.1,1.38,0.15,1.88,0.15l8.15-0.15
			c0.42,0,2.17,0.05,5.26,0.15l4.26-0.15c1.17,0,1.76,0.39,1.76,1.18c0,0.69-1.37,1.08-4.11,1.18c-1.33,0.1-2.14,0.27-2.43,0.52
			c-0.29,0.25-0.44,1.06-0.44,2.44v24.35c15.54-17.02,23.32-25.88,23.32-26.57c0-0.49-1.7-0.74-5.11-0.74c-1,0-1.5-0.39-1.5-1.18
			c0-0.59,0.29-0.93,0.87-1.03c0.58-0.1,2.66-0.15,6.23-0.15c6.4,0,10.14,0.05,11.22,0.14c1.08,0.09,1.62,0.46,1.62,1.11
			c0,0.94-0.75,1.35-2.24,1.25h-3.49c-1.17-0.1-2.58,0.79-4.24,2.66c-1.08,1.08-2.74,2.86-4.99,5.33
			c-3.33,3.75-8.4,9.32-15.21,16.71c1.08,1.38,5.03,6.17,11.85,14.35l14.71,17.6c2.33,2.76,3.87,4.42,4.61,4.96
			c0.75,0.54,1.95,0.81,3.62,0.81C576.9,530.13,577.4,530.48,577.4,531.17z"/>
		<path d="M723.03,431.03c0,0.84-1.41,1.3-4.24,1.39c-3.16,0.1-5.26,1.33-6.29,3.69c-1.04,2.36-2.64,7.38-4.8,15.05
			c-3.74,13.48-7.07,24.94-9.98,34.39c-4.98,16.14-9.51,31.74-13.58,46.79c-0.34,1.28-0.77,1.92-1.28,1.92
			c-0.43,0-0.83-0.49-1.21-1.47c-0.38-0.98-1.51-4.4-3.39-10.27c-2.32-7.7-4.85-15.46-7.58-23.26c-2.15-6.12-4.27-12.44-6.34-18.96
			c-5.82,16.65-11.59,34.03-17.33,52.15c-0.32,1.21-0.72,1.82-1.2,1.82c-0.4,0-0.88-0.84-1.44-2.51
			c-2.58-7.28-12.14-37.44-28.68-90.48c-1.17-3.74-2.04-6.07-2.62-7.01c-0.58-0.93-2.04-1.45-4.36-1.55
			c-3.99-0.2-5.98-0.89-5.98-2.07c0-0.89,0.67-1.33,1.99-1.33c0.58,0,1.08,0.05,1.5,0.15c4.41,0.29,9.14,0.44,14.21,0.44
			c1,0,2.72-0.1,5.17-0.29c2.45-0.2,5.63-0.29,9.54-0.29h1.37c1.41,0,2.12,0.45,2.12,1.36c0,1.1-1.28,1.71-3.84,1.81
			c-5.12,0.2-7.68,1-7.68,2.41c0,2.76,7.64,28.39,22.91,76.91c5.55-16.62,9.7-28.87,12.44-36.74l-12.31-37.8
			c-0.67-2.06-1.44-3.38-2.32-3.97c-0.88-0.59-2.49-0.93-4.82-1.03c-2.34-0.1-3.51-0.54-3.51-1.32c0-1.08,0.87-1.62,2.62-1.62
			c1.33,0,2.95,0.1,4.86,0.29c1.91,0.2,5.24,0.29,9.98,0.29h9.47h13.72c3.07,0,6.77-0.16,11.1-0.47c0.5-0.08,1.08-0.12,1.75-0.12
			c1.99,0,2.99,0.52,2.99,1.55c0,0.93-0.71,1.4-2.12,1.4h-2.12c-3.74,0-6.57,0.59-8.48,1.77c-0.83,0.49-2.37,4.03-4.61,10.62
			c-1.01,2.75-2.69,7.42-5.04,14.01c-0.49,1.48-1.22,3.7-2.2,6.67c0.58,1.97,2.4,7.44,5.46,16.4c3.95,11.39,7.2,21.16,9.75,29.31
			c4.68-15.93,10.19-34.77,16.54-56.5c3.36-11.57,5.04-18,5.04-19.28c0-1.88-1.46-2.82-4.36-2.82c-4.07,0-6.11-0.54-6.11-1.63
			c0-0.99,0.83-1.48,2.49-1.48c1.41,0,2.53,0.07,3.37,0.2c1.83,0.26,3.49,0.39,4.99,0.39h9.97c2.49,0,3.87,0.12,4.11,0.35
			C722.9,430.5,723.03,430.76,723.03,431.03z M670.29,432.72h-1.5h-2.12c-2.99,0.2-4.49,0.84-4.49,1.93c0,0.2,2.45,8.75,7.34,25.67
			c1.9-4.92,4.13-11.42,6.69-19.5c0.34-1.08,0.86-2.5,1.55-4.27l0.26-1.18C678.02,433.61,675.44,432.72,670.29,432.72z"/>
		<path d="M773.27,516.48c0,0.1-0.06,0.73-0.19,1.88c-0.12,1.15-0.19,2.18-0.19,3.08v8.56c0,0.89,0.12,1.88,0.37,2.95l-20.81-0.44
			l-23.82,0.44c-1.76,0-2.63-0.39-2.63-1.17c0-0.89,0.5-1.34,1.5-1.34c2.66,0,4.22-0.22,4.68-0.66c0.46-0.44,0.69-2.04,0.69-4.8
			V474.2c0-4.03-0.29-6.17-0.87-6.42c-0.58-0.25-2.04-0.37-4.36-0.37c-1,0-1.5-0.34-1.5-1.03c0-0.79,0.54-1.18,1.62-1.18h2.99
			c0.83,0,1.66,0,2.49,0h1.37h3.12c0.42,0,2.49,0,6.23,0c3.82,0,8.39,0,13.71,0h7.36c2.16,0,3.95,0,5.36,0v1.02l0.12,2.18
			c0.17,1.46,0.5,5.82,1,13.09c0.08,0.49,0.12,1.07,0.12,1.75c0,1.26-0.29,1.89-0.87,1.89c-0.75,0-1.28-0.98-1.61-2.95
			c-1.16-7.48-3.35-11.86-6.58-13.14c-1.82-0.69-6.12-1.03-12.91-1.03h-6.33v27.6h2.97c5.28,0,8.53-0.52,9.77-1.55
			c1.24-1.03,2.06-3.86,2.47-8.49c0.25-2.75,0.75-4.13,1.5-4.13c0.83,0,1.25,0.99,1.25,2.95c0,1.18-0.06,3-0.19,5.46
			c-0.12,2.46-0.19,4.33-0.19,5.61c0,6.4,0.09,10.77,0.28,13.14c0.06,0.79,0.09,1.43,0.09,1.92c0,1.58-0.41,2.36-1.23,2.36
			c-0.74,0-1.23-1.23-1.48-3.69c-0.49-5.31-1.31-8.49-2.46-9.52c-1.15-1.03-4.39-1.55-9.71-1.55h-3.07v31.88
			c12.16-0.1,19.32-0.49,21.47-1.18c3.31-1.08,5.25-5.8,5.83-14.17c0.08-1.48,0.54-2.21,1.37-2.21
			C772.86,512.43,773.27,513.78,773.27,516.48z"/>
		<path d="M827.51,514.79c0,4.53-1.39,8.27-4.18,11.22c-2.79,2.95-6.63,4.87-11.53,5.76c-2.91,0.49-9.35,0.74-19.33,0.74
			c-4.41,0-6.94,0-7.61,0h-0.25h-1.75c-0.58,0.1-0.87-0.24-0.87-1.03c0-0.59,0.17-0.93,0.5-1.03c0.33-0.1,1.33-0.15,2.99-0.15
			c1.66,0,2.62-0.2,2.87-0.59c0.25-0.39,0.37-1.62,0.37-3.69v-53.28c0-2.56-0.12-4.06-0.37-4.5c-0.25-0.44-1.58-0.71-3.99-0.81
			c-1.75-0.1-2.62-0.44-2.62-1.03c0-0.79,0.91-1.18,2.74-1.18h2.12c0.91,0,3.37,0.1,7.36,0.29h5.98c5.74,0.1,9.35,0.25,10.85,0.44
			c2,0.2,3.82,0.64,5.49,1.33c5.98,2.56,8.98,7.04,8.98,13.43c0,8.96-5.82,14.27-17.46,15.94l0.12,0.44
			c6.07,0.1,10.85,1.75,14.34,4.95C825.77,505.22,827.51,509.47,827.51,514.79z M814.05,481.65c0-6.46-1.24-10.52-3.71-12.18
			c-1.4-0.98-3.75-1.47-7.05-1.47c-1.4,0-2.43,0.05-3.09,0.15l-0.99,0.14v27.31c4.45-0.1,7.5-0.59,9.15-1.47
			C812.15,492.08,814.05,487.92,814.05,481.65z M816.66,513.68c0-10.38-4.95-15.57-14.86-15.57h-2.6v29.53
			c0,1.18,0.21,1.89,0.62,2.13c0.41,0.25,1.61,0.37,3.59,0.37C812.25,530.14,816.66,524.65,816.66,513.68z"/>
		<path d="M945.96,481.13c0,17.37-5.11,30.89-15.34,40.56c-7.48,7.11-17.5,10.66-30.05,10.66c-0.33,0-1.81,0-4.43,0s-6.42,0-11.41,0
			h-6.23h-9.85c-0.58,0-1.21,0-1.87,0c-1.58,0-2.37-0.49-2.37-1.48c0-0.89,1.33-1.33,3.99-1.33c3.41,0,5.53-0.74,6.36-2.21
			c0.33-0.69,0.5-2.56,0.5-5.61v-79.56c0-4.82-0.31-7.62-0.94-8.41c-0.62-0.79-2.76-1.18-6.42-1.18c-1.91,0-2.87-0.54-2.87-1.62
			c0-0.79,0.71-1.18,2.12-1.18c-0.08,0,0.83,0,2.74,0c1.91,0,3.78,0,5.61,0h13.34c14.96,0,25.56,1.23,31.79,3.7
			c7.56,2.96,13.67,8.81,18.33,17.54C943.63,459.75,945.96,469.79,945.96,481.13z M931.99,480.54c0-16.38-2.7-28.4-8.1-36.05
			c-5.4-7.65-13.84-11.48-25.31-11.48c-5.57,0-8.94,0.69-10.1,2.07c-0.5,0.69-0.75,3.06-0.75,7.11v78.76c0,2.76,0.06,4.44,0.19,5.03
			c0.12,0.59,0.48,1.09,1.06,1.48c2,1.18,6.19,1.78,12.59,1.78c8.98,0,16.21-3.75,21.69-11.25
			C929.08,510.1,931.99,497.62,931.99,480.54z"/>
		<path d="M1004.93,516.48c0,0.1-0.06,0.73-0.19,1.88c-0.12,1.15-0.19,2.18-0.19,3.08v8.56c0,0.89,0.12,1.88,0.37,2.95l-20.81-0.44
			l-23.82,0.44c-1.76,0-2.63-0.39-2.63-1.17c0-0.89,0.5-1.34,1.5-1.34c2.66,0,4.22-0.22,4.68-0.66c0.46-0.44,0.69-2.04,0.69-4.8
			V474.2c0-4.03-0.29-6.17-0.87-6.42c-0.58-0.25-2.04-0.37-4.36-0.37c-1,0-1.5-0.34-1.5-1.03c0-0.79,0.54-1.18,1.62-1.18h2.99
			c0.83,0,1.66,0,2.49,0h1.37h3.12c0.42,0,2.49,0,6.23,0c3.82,0,8.39,0,13.71,0h7.36c2.16,0,3.95,0,5.36,0v1.02l0.12,2.18
			c0.17,1.46,0.5,5.82,1,13.09c0.08,0.49,0.12,1.07,0.12,1.75c0,1.26-0.29,1.89-0.87,1.89c-0.75,0-1.28-0.98-1.61-2.95
			c-1.16-7.48-3.35-11.86-6.58-13.14c-1.82-0.69-6.12-1.03-12.91-1.03h-6.33v27.6h2.97c5.28,0,8.53-0.52,9.77-1.55
			c1.24-1.03,2.06-3.86,2.47-8.49c0.25-2.75,0.75-4.13,1.5-4.13c0.83,0,1.25,0.99,1.25,2.95c0,1.18-0.06,3-0.19,5.46
			c-0.12,2.46-0.19,4.33-0.19,5.61c0,6.4,0.09,10.77,0.28,13.14c0.06,0.79,0.09,1.43,0.09,1.92c0,1.58-0.41,2.36-1.23,2.36
			c-0.74,0-1.23-1.23-1.48-3.69c-0.49-5.31-1.31-8.49-2.46-9.52c-1.15-1.03-4.39-1.55-9.71-1.55h-3.07v31.88
			c12.16-0.1,19.32-0.49,21.47-1.18c3.31-1.08,5.25-5.8,5.83-14.17c0.08-1.48,0.54-2.21,1.37-2.21
			C1004.52,512.43,1004.93,513.78,1004.93,516.48z"/>
		<path d="M1069.27,465.97c0,0.92-0.71,1.27-2.12,1.07c-2.33,0.1-3.91,0.43-4.74,0.99c-0.83,0.56-1.54,1.75-2.12,3.58l-0.75,2.44
			c-4.66,13.97-10.56,32.62-17.71,55.94c-0.67,2.46-1.33,3.69-1.99,3.69c-0.67,0-1.33-1.13-2-3.39
			c-3.31-10.83-8.16-25.99-14.53-45.49c-0.85-2.55-2.07-6.38-3.67-11.49c-0.92-3.05-1.77-4.85-2.56-5.39
			c-0.79-0.54-2.81-0.81-6.05-0.81c-0.91,0-1.37-0.3-1.37-0.89c0-0.89,0.58-1.33,1.75-1.33c1.75,0,3.34,0,4.8,0
			c1.45,0,4.22,0,8.29,0c0.75,0,2.04,0,3.87,0c1.75,0,3.03,0,3.87,0h3.49c2.16,0,3.24,0.39,3.24,1.18c0,0.69-0.62,1.13-1.87,1.33
			h-1.87h-2.74c-2.58,0.1-3.87,0.5-3.87,1.2c0,0.4,2.16,7.38,6.48,20.94c0.17,0.39,2.74,8.58,7.71,24.56
			c0.59-1.86,2.35-7.23,5.3-16.13l5.15-16.27c2.44-7.27,3.67-11.49,3.67-12.67c0-0.98-0.71-1.52-2.12-1.62h-2.87h-2
			c-0.67,0-1-0.3-1-0.9c0-1.07,1.2-1.61,3.62-1.61h2.37c0.83,0,2.04,0,3.62,0c1.58,0.29,2.49,0.44,2.74,0.44
			c0.42,0,1.2-0.15,2.37-0.44c1.25,0,2.37,0,3.37,0h0.37C1068.65,464.9,1069.27,465.26,1069.27,465.97z"/>
		<path d="M1121.38,516.48c0,0.1-0.06,0.73-0.19,1.88c-0.12,1.15-0.19,2.18-0.19,3.08v8.56c0,0.89,0.12,1.88,0.37,2.95l-20.81-0.44
			l-23.82,0.44c-1.76,0-2.63-0.39-2.63-1.17c0-0.89,0.5-1.34,1.5-1.34c2.66,0,4.22-0.22,4.68-0.66c0.46-0.44,0.69-2.04,0.69-4.8
			V474.2c0-4.03-0.29-6.17-0.87-6.42c-0.58-0.25-2.04-0.37-4.36-0.37c-1,0-1.5-0.34-1.5-1.03c0-0.79,0.54-1.18,1.62-1.18h2.99
			c0.83,0,1.66,0,2.49,0h1.37h3.12c0.42,0,2.49,0,6.23,0c3.82,0,8.39,0,13.71,0h7.36c2.16,0,3.95,0,5.36,0v1.02l0.12,2.18
			c0.17,1.46,0.5,5.82,1,13.09c0.08,0.49,0.12,1.07,0.12,1.75c0,1.26-0.29,1.89-0.87,1.89c-0.75,0-1.28-0.98-1.61-2.95
			c-1.16-7.48-3.35-11.86-6.58-13.14c-1.82-0.69-6.12-1.03-12.91-1.03h-6.33v27.6h2.97c5.28,0,8.53-0.52,9.77-1.55
			c1.24-1.03,2.06-3.86,2.47-8.49c0.25-2.75,0.75-4.13,1.5-4.13c0.83,0,1.25,0.99,1.25,2.95c0,1.18-0.06,3-0.19,5.46
			c-0.12,2.46-0.19,4.33-0.19,5.61c0,6.4,0.09,10.77,0.28,13.14c0.06,0.79,0.09,1.43,0.09,1.92c0,1.58-0.41,2.36-1.23,2.36
			c-0.74,0-1.23-1.23-1.48-3.69c-0.49-5.31-1.31-8.49-2.46-9.52c-1.15-1.03-4.39-1.55-9.71-1.55h-3.07v31.88
			c12.16-0.1,19.32-0.49,21.47-1.18c3.31-1.08,5.25-5.8,5.83-14.17c0.08-1.48,0.54-2.21,1.37-2.21
			C1120.97,512.43,1121.38,513.78,1121.38,516.48z"/>
		<path d="M1177.62,519.07c0,5.51-0.08,10.14-0.25,13.88c-0.5,0.1-1.12,0.15-1.87,0.15c-0.08,0-0.73-0.07-1.93-0.22
			c-1.21-0.15-2.76-0.22-4.68-0.22h-5.86l-21.32-0.29h-10.22c-1.08,0-1.62-0.32-1.62-0.97c0-0.55,1.62-0.97,4.86-1.25
			c0.91-0.1,1.47-0.34,1.68-0.74c0.21-0.39,0.31-1.48,0.31-3.26v-49.56c0-5.52-0.37-8.43-1.12-8.73c-0.33-0.2-1.06-0.3-2.18-0.3
			s-1.85-0.05-2.18-0.15c-0.92,0-1.37-0.39-1.37-1.18c0-0.69,0.54-1.04,1.63-1.04h17.3c0.92,0,1.88,0,2.88,0
			c1.59,0,2.38,0.42,2.38,1.25c0,0.55-1.37,0.88-4.12,0.97c-1.33,0.1-2.12,0.45-2.37,1.04c-0.25,0.59-0.37,2.71-0.37,6.36v54.89
			c3.31,0.1,5.71,0.15,7.2,0.15c8.94,0,14.52-1.03,16.76-3.1c1.82-1.67,2.98-5.21,3.48-10.63c0.17-2.36,0.62-3.54,1.37-3.54
			C1177.07,512.57,1177.62,514.74,1177.62,519.07z"/>
		<path d="M1241.7,499.22c0,9.52-2.62,17.6-7.86,24.23c-5.24,6.63-11.64,9.94-19.2,9.94c-8.06,0-14.86-3.36-20.39-10.09
			c-5.53-6.72-8.29-14.95-8.29-24.67c0-10.11,2.64-18.38,7.92-24.82c5.28-6.43,12.03-9.65,20.26-9.65c7.81,0,14.36,3.36,19.64,10.09
			C1239.06,480.98,1241.7,489.3,1241.7,499.22z M1229.98,499.66c0-11.39-1.95-20.37-5.86-26.95c-2.49-4.22-5.94-6.33-10.35-6.33
			c-6.07,0-10.47,3.93-13.22,11.78c-1.91,5.5-2.87,12.47-2.87,20.91c0,10.11,1.5,18.02,4.49,23.71c2.99,5.69,7.15,8.54,12.47,8.54
			C1224.87,531.32,1229.98,520.76,1229.98,499.66z"/>
		<path d="M1295.19,481.43c0,5.41-1.86,9.77-5.58,13.06c-3.72,3.3-8.6,4.95-14.64,4.95c-0.91,0-2.57-0.15-4.96-0.44h-0.74v26.72
			c0,2.66,0.55,4.11,1.66,4.35c1.1,0.25,2.68,0.37,4.72,0.37c0.9,0,1.35,0.35,1.35,1.03c0,0.49-0.48,0.79-1.43,0.89
			c-0.96,0.1-4.26,0.15-9.91,0.15c-7.07,0-11.18-0.05-12.34-0.14c-1.17-0.09-1.75-0.41-1.75-0.97c0-0.74,0.33-1.06,1-0.96h1.87
			c1.91-0.2,3.03-0.32,3.37-0.37c0.33-0.05,0.58-0.22,0.75-0.52c0.17-0.29,0.25-1.97,0.25-5.02v-49.45c0-3.93-0.04-6.05-0.13-6.35
			c-0.25-0.89-1.61-1.33-4.06-1.33h-1.65c-0.93,0-1.39-0.39-1.39-1.18c0-0.49,0.46-0.79,1.38-0.89c0.92-0.1,4.04-0.15,9.38-0.15
			c10.67,0,17.21,0.25,19.63,0.74C1290.77,467.7,1295.19,472.87,1295.19,481.43z M1284.34,481.5c0-9.4-3.5-14.09-10.51-14.09
			c-2.06,0-3.34,0.2-3.83,0.59c-0.5,0.4-0.74,1.53-0.74,3.41v25.51C1279.31,496.93,1284.34,491.79,1284.34,481.5z"/>
		<path d="M1351.3,516.48c0,0.1-0.06,0.73-0.19,1.88c-0.12,1.15-0.19,2.18-0.19,3.08v8.56c0,0.89,0.12,1.88,0.37,2.95l-20.81-0.44
			l-23.82,0.44c-1.76,0-2.63-0.39-2.63-1.17c0-0.89,0.5-1.34,1.5-1.34c2.66,0,4.22-0.22,4.68-0.66c0.46-0.44,0.69-2.04,0.69-4.8
			V474.2c0-4.03-0.29-6.17-0.87-6.42c-0.58-0.25-2.04-0.37-4.36-0.37c-1,0-1.5-0.34-1.5-1.03c0-0.79,0.54-1.18,1.62-1.18h2.99
			c0.83,0,1.66,0,2.49,0h1.37h3.12c0.42,0,2.49,0,6.23,0c3.82,0,8.39,0,13.71,0h7.36c2.16,0,3.95,0,5.36,0v1.02l0.12,2.18
			c0.17,1.46,0.5,5.82,1,13.09c0.08,0.49,0.12,1.07,0.12,1.75c0,1.26-0.29,1.89-0.87,1.89c-0.75,0-1.28-0.98-1.61-2.95
			c-1.16-7.48-3.35-11.86-6.58-13.14c-1.82-0.69-6.12-1.03-12.91-1.03h-6.33v27.6h2.97c5.28,0,8.53-0.52,9.77-1.55
			c1.24-1.03,2.06-3.86,2.47-8.49c0.25-2.75,0.75-4.13,1.5-4.13c0.83,0,1.25,0.99,1.25,2.95c0,1.18-0.06,3-0.19,5.46
			c-0.12,2.46-0.19,4.33-0.19,5.61c0,6.4,0.09,10.77,0.28,13.14c0.06,0.79,0.09,1.43,0.09,1.92c0,1.58-0.41,2.36-1.23,2.36
			c-0.74,0-1.23-1.23-1.48-3.69c-0.49-5.31-1.31-8.49-2.46-9.52c-1.15-1.03-4.39-1.55-9.71-1.55h-3.07v31.88
			c12.16-0.1,19.32-0.49,21.47-1.18c3.31-1.08,5.25-5.8,5.83-14.17c0.08-1.48,0.54-2.21,1.37-2.21
			C1350.88,512.43,1351.3,513.78,1351.3,516.48z"/>
		<path d="M1412.02,528.66c0,3.15-2.32,4.72-6.96,4.72c-4.47,0-8.12-2.01-10.93-6.03c-1.24-1.76-2.07-3.53-2.49-5.29
			c-0.42-1.76-0.91-5.93-1.49-12.5c-0.42-4.21-1.55-7.15-3.42-8.82c-1.87-1.67-5.07-2.6-9.63-2.79v30.41
			c-0.25,1.38,1.83,2.07,6.25,2.07c0.9,0,1.35,0.35,1.35,1.03c0,0.69-0.58,1.03-1.75,1.03c-0.92,0-1.79,0-2.62,0h-4.36
			c-1.83,0-4.03,0-6.61,0c-2.49,0-3.87,0-4.12,0h-2.37c-2.33,0-3.49-0.32-3.49-0.96c0-0.73,0.41-1.1,1.25-1.1c0.25,0,0.67,0,1.25,0
			h0.5c2.82,0,4.24-0.69,4.24-2.07v-58.3c0-1.08-0.23-1.79-0.69-2.14c-0.46-0.34-1.66-0.52-3.62-0.52c-1.95,0-2.93-0.39-2.93-1.18
			c0-0.69,0.58-1.03,1.75-1.03h0.87c1.33,0,5.28,0,11.84,0c2.74,0,4.99,0,6.73,0c1.75,0,3.12,0,4.11,0c5.57,0,10.04,1.35,13.4,4.04
			c3.37,2.69,5.05,6.25,5.05,10.65c0,4.8-1.79,8.7-5.36,11.68c-3.58,2.99-8.6,4.73-15.09,5.21c6.98,0.88,11.78,3.04,14.4,6.47
			c2.62,3.43,4.3,9.6,5.05,18.51c0.5,6.08,2.04,9.11,4.61,9.11c0.41,0,0.62-0.14,0.62-0.43c0-0.09-0.11-0.41-0.31-0.93
			c-0.21-0.53-0.31-0.93-0.31-1.22c0-1.82,0.83-2.73,2.49-2.73C1411.1,525.56,1412.02,526.59,1412.02,528.66z M1392.32,480.92
			c0-8.81-3.67-13.21-11.01-13.21c-1.9,0-3.07,0.22-3.52,0.66c-0.45,0.44-0.68,1.49-0.68,3.16v24.08
			C1387.24,495.6,1392.32,490.71,1392.32,480.92z"/>
	</g>
</g>
<g id="Layer_3">
	<rect x="735.03" y="61.18" class="st3" width="30.59" height="30.59"/>
	<rect x="1216.75" class="st3" width="30.59" height="30.59"/>
	<rect x="319" y="212.9" class="st4" width="30.59" height="30.59"/>
	<rect x="110.5" y="30.59" class="st3" width="30.59" height="30.59"/>
	<rect x="1422.3" y="212.9" class="st4" width="30.59" height="30.59"/>
	<rect x="968.05" y="30.59" class="st4" width="30.59" height="30.59"/>
	<rect x="288.41" class="st4" width="30.59" height="30.59"/>
	<rect x="579.01" y="61.18" class="st4" width="30.59" height="30.59"/>
	<line class="st5" x1="82.57" y1="315.84" x2="701.27" y2="315.84"/>
	<line class="st5" x1="890.12" y1="315.83" x2="1094.87" y2="315.83"/>
	<line class="st5" x1="1271.37" y1="315.83" x2="1422.3" y2="315.83"/>
</g>
<g id="Layer_4" class="st0">
	<text transform="matrix(0.9944 0.1055 -0.1055 0.9944 1261.8495 81.5636)" class="st6 st7 st8">&lt;/&gt;</text>
	<path class="st9" d="M1196.48,54.2c0-0.63,0.04-1.25,0.09-1.87h-0.09V54.2z"/>
	<text transform="matrix(0.97 -0.2433 0.2433 0.97 1165.1365 73.8977)" class="st10 st7 st8">.{}</text>
	<text transform="matrix(0.8676 0.4972 -0.4972 0.8676 1182.7017 157.5898)" class="st11 st7 st8">()=&gt;</text>
	<text transform="matrix(0.7704 -0.6376 0.6376 0.7704 1245.62 386.2975)" class="st12 st7 st8">‘codeLife’</text>
	<rect x="1362.69" y="-45.6" class="st1" width="14.92" height="14.92"/>
</g>
</svg>
