<?xml version="1.0" encoding="utf-8"?>
<!-- Generator: Adobe Illustrator 27.9.2, SVG Export Plug-In . SVG Version: 6.00 Build 0)  -->
<svg version="1.1" id="Layer_1" xmlns="http://www.w3.org/2000/svg" xmlns:xlink="http://www.w3.org/1999/xlink" x="0px" y="0px"
	 viewBox="0 0 889.8 508.8" style="enable-background:new 0 0 889.8 508.8;" xml:space="preserve">
<style type="text/css">
	.st0{fill:#FEFEFE;}
	.st1{fill:#DC2626;}
</style>
<g>
	<path class="st0" d="M444.2,508.7c-146.1,0-292.2,0-438.2,0.1c-3.4,0-4.2-0.7-4.2-4c0.1-166.6,0.1-333.3,0-499.9c0-3.3,0.8-4,4.2-4
		c292.2,0.1,584.3,0.1,876.5,0c3.4,0,4.2,0.7,4.2,4c-0.1,166.6-0.1,333.3,0,499.9c0,3.3-0.8,4-4.2,4
		C736.4,508.7,590.3,508.7,444.2,508.7z"/>
	<path class="st1" d="M457.7,214.8c-3,1.5-4.8-0.8-5.9-2.6c-1.8-2.9,2.9-2.9,2.8-5.7c-3.5-0.3-6.2-6-11.1-1.8
		c-0.4,0.3-2-0.3-2.6-0.9c-5.5-4.8-13.8-3.9-19-10c-3-3.6-8.7-2.9-13.2-4.1c-2.8-0.8-6-1.6-2.6-5.9c2.2-2.7-0.1-6.2-1-8.8
		c-0.8-2.2-4.1-2-6.9-1.3c-2.9,0.8-5.7,1.3-7.7,3.8c-0.6,0.7-1.3,1.8-2.4,1c-1-0.7-1.8-1.4-0.7-2.8c1-1.3,0-2.4-0.5-3.6
		c-0.4-1-0.9-1.2-1.8-1.2c-1.6,0.1-0.4,1.1-0.6,1.6c-1.2,3.8-3.4,3.8-6.1,1.4c-0.6-0.6-1.1-1.5-1.8-1.7c-6.8-1.5-1.8-3.2,0.6-5.2
		c-4.2-1.4-6.7-5.1-11.8-2.5c-3.9,2-18.6-5-21.2-8.8c-1.1-1.6,0.4-2.9-0.1-4.6c-0.5-1.5,1.6-3.7-1.6-4.5c-1.1-0.3-0.8-1.3-0.1-2
		c0.6-0.6,1.2-1.3,2.1-0.6c1.1,0.9,2.1,2.3,3.9,1.4c-1.7-7.9-8.3-9.1-15.2-7.3c-2.2,0.5-3.7,0.1-5.6-0.4c-1.9-0.5-3.8-2.1-5.8,0.3
		c-0.9,1.2-2.3,0.7-3.5-0.4c-5.6-5-11.2-9.9-16.8-14.8c-0.9-0.8-1.7-1.7-2.7-2.2c-2.2-0.9-8.3,0.3-2.2-4.7c0.6-0.5-0.3-1.8-1-2
		c-2.7-0.7-2.9-3.3-4.3-5.1c-1.6,0.5-2.1,2.3-1.4,3c3.1,2.9-0.3,6.3,0.8,9.2c0.4,1.1,0,2.5-1.2,2.9c-0.6,0.2-1.6-0.2-2.1-0.7
		c-1-0.9-0.8-2.1,0.1-3c2-1.9,1.3-3-1-3.8c-4.4-1.6-7.8-4-11.2-7.9c-4.1-4.7-9-11.6-18.2-8.3c-4.3,1.6-6.7-3.1-9.5-5.8
		c0.8-0.9,1.3-1.1,2-0.6c1.8,1.4,3,0.4,4.3-0.9c0.7-0.8,0.6-1.3-0.1-2c-1.3-1.3-2.3-1.7-4.3-1c-2.6,0.9-5.5,0.7-7.6,4.2
		c-1.8-7.4-6.5-8.8-12.8-9.1c-3.2-0.1-5.3-4.6-8.4-6.5c-2.1-1.3-5.6-2.3-5.2-6.5c0.2-1.3-1.8-2-3.5-1.4c-3.5,1.3-6.3,1.1-9-2.3
		c-1.6-2-4.2-3.3-7.4-3.1c-5.2,0.3-6-0.9-4.9-5.9c0.7-3.5-1.5-5.3-4-5.4c-5.4-0.2-7.2-4.6-10.4-7.5c-1-0.9-1.6-1.9-3.2-2.2
		c-1.4-0.3-3.1-0.3-2.8-3.1c0.2-1.9-2.5-3.3-4.9-2.6c-0.6,0.2-1.1,1.1-1.6,1.7c2.9,1.5,2.4,6.4,5,6.8c4.4,0.7,5.4,5.5,9.3,6.4
		c0.8,0.2,1.8,1.2,1.3,2.4c-0.4,0.9-1.2,1.5-2.4,1.5c-3,0-5.9,0.1-7.6-3.2c-0.7-1.4-2-2.9-3.4-3.5c-3-1.4-4.5-3.8-5.2-6.7
		c-0.8-3.7-3.5-5.1-6.5-5.4c-2.9-0.3-5.3,0.6-5.2,4.5c0,1.7-2.3,1.7-3.7,1.2c-1.2-0.4-2.4-1.1-1.3-3c0.5-0.9,0.5-2.3,0.4-3.4
		c-0.2-2.3-2.2-3-3.9-4c-2.6-1.6-2,1.4-3,2c-1.1,0.7-1.8,2.1-3.1,3.6c-2.1-5.3-8.1-8.3-7.1-15.1c0.4-2.4-1.6-4.2-4-3.9
		c-2.9,0.3-5.5-1-8.5-0.3c-3.5,0.8-5.2-3.6-8.3-5c-3.3-1.5-6.8-2.9-9.6-5.5c-0.9-0.8-2.1-0.1-3,0.8c-3.6,3.6-6.2,1.5-8.6-1.6
		c-1.9-2.4-3.9-4.9-5.8-7.3c4.5-1.7,9.6,0.6,14-2c5.7,0,11.3,0,17,0c4.3,0.6,8.7,0.6,13,0c28.7,0,57.3,0,86,0c3.3,0.6,6.7,0.6,10,0
		c3,0,6,0,9,0c1.7,0.6,3.3,0.6,5,0c9.7,0,19.3,0,29,0c2.3,0.9,4.7-0.2,7,0.7c0.3,0.1,0.7,0.2,1,0.3c1.8,0.4,3.7,1.1,5-1
		c10.3,0,20.7,0,31,0c2,2.1,4,2,6,0c7.5-0.1,14.9-0.1,22.4-0.2c1.4,0,2.5,0.4,3.6,1.2c2.6,0.5,5.2,0.7,7.8-0.2
		c4.2-2.6,8.8-0.8,13.1-0.8c11.2,0,22.4-0.7,33.7,0.3c4.5,0.4,9.5-0.2,14.2-0.5c1.8-0.1,3.6-0.2,5.1,1.2c2.4,0.2,4.9,1.4,7-1
		c15.5-0.1,31.1-0.1,46.6-0.2c1,0,2-0.2,2.6,1c1.9,0.8,3.8,0.8,5.7,0c0.5-1.2,1.6-1,2.5-1c12.5,0,25.1,0.1,37.6,0.2
		c2,1.8,4.7,0.3,6.9,1.1c0.4,0.2-0.3-0.7,0.1-1.1c7,0,14,0,21,0c3.6,1.1,7.3,1.5,11,0.8l-0.1,0.1c4.2-1.3,8.4-0.2,12.5,0.3
		c3,0.3,5.8,0.3,8.5-1.1c0.3,0,0.7,0,1,0c4.7,0.6,9.3,0.6,14,0c9.3,0.7,18.7-1.1,28,0.7c1.6-0.8,3.4,0.2,5-0.7
		c10.7,1.4,21.3-0.8,32,0c4.5,3,9.6,0.3,14.2,1.4c0.2,0-0.6-0.9-0.3-1.4c3.3,0,6.7,0,10,0c1.1,1.9,2.7,1.6,4.3,0.9
		c1.6-0.6,3.1-0.8,4.7-0.3c1.8,2,2.8-0.5,4.1-0.7c3.2-0.4,6.6-0.1,9.9,0c2.4,0.8,4.8,0.2,7.2,0.4c2,0.4,3.9,1.1,5.8-0.4c2,0,4,0,6,0
		c2.4,1.3,5,1.5,7.7,1.2c0.5,0,2.5,0.8,1.3-1.2c6,0,12,0,18,0c1.5,2.4,3.8,1.3,5.8,1.3c3.4,0,6.8,0.5,10.2-0.3c1.3,0,2.7,0,4,0
		c8.3,0.7,16.6,0.3,24.8-0.2c3.2-2.1,6.8-0.6,10.2-0.8c1.9,0.9,4.2-0.3,6.1,0.8l-0.1-0.1c4,1,7.9,0.9,11.9,0.1
		c4.5-2.1,9.6-1.5,14-0.7c5.1,0.9,9.7,0.2,14.6-0.1c7.8-0.5,15.7,0,23.5,0c4.6,1.4,9.2,1.8,14,1c1.5-0.2,3.1-0.7,3,1.8
		c-0.1,1.2,0,2.3,0,3.5c0,148.2,0,296.5,0,444.7c0,2.7,1.1,6.2-3.8,6c-3.6-0.1-5.1-1.8-5.3-5.4c-0.1-2.4-1.3-3.4-4.4-4.4
		c-6-1.9-13.7-1.5-17.5-8.7c-0.7-1.4-3.6-1.6-4.1-4c-0.2-1.1-1.3-0.8-1.9-0.2c-4.5,4.6-9,0.1-13.6,0.1c-1.5,0-0.9-1.7-0.4-2.7
		c0.9-1.9,1.8-3.7,3-6.2c-3.8,1.3-7.5-0.5-10.7,2.1c-0.8,0.7-2.4,1.4-3.3-0.4c-1.9-4-6.1-6-8.1-9.8c-0.8-1.5-2.1-2.7-3.7-3
		c-3-0.5-4.5-2-4.2-5.2c0.1-1-0.4-1.5-1.4-1.5c-1,0-1.4,0.4-1.7,1.4c-1.3,4.7-4.2,3.4-6.9,1.6c-3.5-2.3-9.3-2.7-7.5-9.5
		c0.3-1.2-1.6-2.8-3.5-1.4c-1.9,1.3-3.2,1.1-4-1.3c-1.2-3.7-4.2-3.2-6.8-2.2c-2,0.8-4.5,4-5.7,1.8c-1.3-2.4-0.4-6.3,3.3-7.8
		c0.1,0,0.1-0.3,0.2-0.7c-1.9-1.5-4.9-1.2-6.7-3c-1.2-1.2-2.3,0.1-2.9,0.7c-2.6,2.5-5.2,2.2-6.2-1.5c-1.1-4.1-4.6-5.6-7.4-7.9
		c-1.1-0.9-2.6-1.8-4-0.3c-4.1,4.3-6.7,0.9-8.8-2c-2-2.7-3.4-4.3-7.4-2.9c-3.9,1.3-7.4-1.6-9.5-4.7c-1.9-2.7-4.8-5.4-7-5.7
		c-5-0.7-7.2-3.3-9.8-7.1c-1.7-2.5-5.9-3-9.4-3.2c-6.1-0.4-7.7-2.2-7-8.1c0.3-3-2.1-3.6-3.9-2.8c-5.6,2.3-6.4-1.3-6.9-5.2
		c-0.2-1.5,0-3.5-1.7-3.7c-2.2-0.3-0.7,2.2-1.4,2.9c-1.1,1.1-2.5,1.9-3.8,2.9c-2.2-5.9-5.8-8.2-12.6-8c-2.9,0.1-5.5,0-6.9-3
		c-0.3-0.7-1.1-1.4-1.8-1.7c-6.5-2.2-11.9-7.1-19.1-7.7c-2.5-0.2-2.4-3.3-3.3-5.1c-0.7-1.5,1-2.4,2-3.1c2.2-1.6,2.6,0.8,3.6,1.8
		c1.2,1.2,2.4,3.1,4.3,1.9c2-1.2,3.2-3.5,2.8-5.9c-0.4-2.1-2.4-3.5-3.7-1.4c-1.7,2.7-3.2,2.2-5.2,1.2c-4.3-2.2-9.7-2.7-11.3-8.5
		c-0.3-1.2-0.8-3.2-2.5-3.3c-1.6-0.1-1.7,1.8-2.2,2.8c-1.6,3.5-4.4,1-5,0.2c-3-3.8-8.8-2.5-11.4-6.9c-0.4-0.7-1.8-0.2-1.5,0.8
		c1.3,3.9-1.8,2.8-3.3,2.7c-2.2-0.2-5-0.8-4.8-3.8c0.2-2.7-1.4-3.2-3.2-4.1c-4.5-2.5-9-5.2-13.4-7.9c-0.9-0.6-1.8-1.9-2.6,0.1
		c-1,2.6-3.2,1.7-5.1,1.9c-1.1,0.1-2.3-0.4-2.4-1.3c-0.2-1,0.8-1.7,2-1.7c1.3,0,2.4-0.6,2.5-1.9c0.1-1.8-1.5-1.2-2.6-1.6
		c-2.7-1-4.7-4.4-8.4-1.8c-0.4,0.3-3.3-1.3-3.8-3.1c-1.5-4.8-5.5-7.1-8.9-10.1c-1.2-1-2.1-2.3-3.6-0.5c-1.2,1.3-2.1,2.5-0.7,4.3
		c1.5,1.9,2.8,4,3.9,6.3c-3.5-1.3-7.6-1.4-7.8-7c-0.2-5.4-7.4-10-13.2-8.9c-1,0.2-1.5,0.2-1.7-0.9c-0.9-3.7-3-3.8-6.1-2.3
		c-3.5,1.6-5.5-0.1-6.1-4.1c-0.2-1.4-0.6-2.7-2.6-3.5c-4.9-1.8-11.6-2.4-9.3-10.7c0.3-1.1-0.9-1-1.7-1.2c-1.5-0.5-3-1.1-4.5-1.8
		c-1.2-0.5-1.8-3.2-3.4-1.6c-1.2,1.1-1.9,3.1-1.1,5c0.3,0.7,1.2,1.5,0.2,2.1c-0.6,0.3-2,0.3-2.3-0.1c-1.8-2.7-5.9-2.8-6.5-7
		c-0.3-2.1-2.8-3.5-5.2-2.4c-2.1,1-3.3,0.3-2.3-1.5c2-3.5-2.4-4.4-2.6-4.3c-3.8,1.1-5.8-4.6-9.8-2.6
		C459,216.9,458,215.7,457.7,214.8c1.2-1.1,3.4-0.8,4.2-3.4C460,212.2,459.3,214.1,457.7,214.8z"/>
	<path class="st1" d="M0,466.7c-0.1-7.5-0.1-14.9-0.2-22.4c0-1.4,0.4-2.5,1.2-3.6c0.4-2.3,0.8-4.6-0.2-6.8c-1.2-0.5-1-1.6-1-2.5
		c0-26.2,0.1-52.4,0.2-78.6c0.3-1.3,2-2.7,0-4c0-5.3,0.7-10.7,0.4-15.7c-0.3-5.2-0.3-10.6-0.4-15.8c-0.3-22.8-0.1-45.6,0-68.5
		c0.8-2.3,0.4-4.7,0-7c0-2.3,0-4.7,0-7c1.3-1.3,0.3-2.7,0-4c0-8.7,0-17.3,0-26c0.7,0,1.3,0.1,1,1.1c0.4-0.5,0.1-1.1,0.2-1.7
		c0.4-5.1,0-10.3-0.5-15.4c-1.8-2-0.7-4.4-0.8-6.6c-0.2-7.8,0-15.5-0.1-23.3c0-2.5,0.2-4.9,1.2-7.1c0.4-1.6,0.8-3.3-0.2-4.8
		c-1.7-6.1-1.7-12.2,0-18.3c0.9-3.3,0.7-6.5,0.2-9.8c-1.5-1.6-1.2-3.7-1.2-5.6c0-7.1,0.1-14.3,0.2-21.4c1.3-0.9,1-2.7,1.8-3.8
		c5.7,0.5,7.6,6.6,12.7,8.2c6.7,2.2,11.6,6.9,16.9,11.7c4.2,3.8,7.9,7.8,11.4,12.1c1.8,2.2,4.1,2.8,5.2,0.8c1.8-3.3,4.3-3.2,7-2.9
		c2.2,0.2,4-1.9,7.4-0.2c-4.3,0.5-6.3,3.2-9.3,4.5c-0.9,0.4-2.4,0.4-2.3,2.1c0.1,1.2,0.7,2,1.6,2.3c1.2,0.4,1.8-0.1,2.7-1.2
		c1.9-2.4,4.2-0.7,5.5,0.8c3.1,3.5,6.8,4.9,11.4,4.6c0.5,0,1.2-0.2,1.5,0c4.3,3.3,9.9,2.6,14.5,5c2,1,2.1,2,0.1,2.9
		c-2.7,1.2-2.4,1.8-0.2,3.8c4.2,3.8,8.6,6,14.4,5.4c1.2-0.1,2.8,0.9,3.9,1.8c2,1.6,3.8,1.3,6,0.4c4.3-1.8,6.7-1.2,11,3
		c-2.9,0.8-5.6,1.5-9.1,2.4c7.1,4.4,13.2,9.1,21.1,10.3c1.7,0.3,3.4,1.2,4.9,2c2.2,1.1,4.3,1.7,6.4-0.1c2.5-2.2,4.4-0.3,5.1,1.6
		c2.6,6.6,5,13.2,13.1,14.9c0.8,0.2,1.8,1.5,0.8,2.3c-0.6,0.5-1,3.4-2.8,0.8c-0.8-1.1-1.9-0.2-2.3,0.8c-0.4,1,0.6,1.6,1.3,1.6
		c4.6,0.2,6.1,5,10.2,6.4c2.1,0.7,4,1.7,6.3,1.7c1.2,0,1.8-0.6,2.5-1.3c-1.9-1.4,0.8-4.2-0.2-4.2c-4.5,0.2-2-6.7-6.5-6
		c-0.4,0.1-1.5-1.3-0.7-1.9c0.9-0.7,1.8-1.7,3.4-1.2c2.6,0.7,4.1,3,4.5,4.8c1.1,4,4.5,4.3,7.2,5.6c1.3,0.6,2.8,0.5,2.6,2.7
		c-0.3,2.2-1.8,1.5-3,1.6c-1.5,0.1-3.3-0.1-3.8,1.5c-0.4,1.4,0.6,3,1.7,3.8c3,2,3.6,6.5,8.1,7.3c0-1.6-0.2-3.1,0-4.4
		c0.8-4.9,2-4.9,6.4-2.5c2.8,1.5,5.9,5.5,9.9,1.6c0.7-0.7,1.8-0.4,2.7,0.3c1.3,1,1.3,2.6,0.7,3.7c-2.3,5,0.6,6.5,4.6,7.6
		c4.5,1.3,9.1,2.5,12.3,6.4c1.1,1.4,2,2,4,0.6c3.3-2.3,7.7-0.1,9.2,3.9c1,2.9,6,5.6,9,4.6c2.5-0.9,4.5-0.2,5.5,1.9
		c1.9,4,5.7,4.9,9,7c4.5,2.8,9.8,5.2,12.2,10.3c1.6,3.4,4.6,3.2,6.7,2.8c3-0.6,5.4-0.1,7.9,1.4c0.4,0.3,0.9,0.4,1.3,0.6
		c3.7,1.4,5.7,4.1,6.6,8.5c1.1,5.2,7.5,6.2,9.6,3.6c2.3-2.9,4.4-1.5,6.4-0.4c3.5,1.9,7.2,3.6,9.4,7.3c2.3,3.7,7.2,3.4,10.3,6.2
		c1.6,1.4,3.2,2.5,4.3,4.4c2.4,4.4,6.8,5.1,11.2,2.3c0.7-0.4,2-2.6,3.5,0c1.3,2.2,7.5-1.1,6.1,5.5c-0.8,3.8,3.1,5.5,6.3,6.2
		c4.4,1,8.1,3.1,11.8,5.6c2.4,1.6,4.7,5,8.6,2.7c0.5-0.3,2.1,1.2,3.2,1.8c2.2,1.4,4.1,3.7,7.3,2.1c1.1-0.5,1.7,0.7,2.4,1.3
		c2.2,2,3.9,3.9,7.7,4c2.3,0,5.1,4.1,6.5,7.2c0.9,2,2.3,3.6,4,4.9c1.3,1,2.7,1.5,4.1-0.3c0.6-0.7,0.4-3.1,2.6-1.9
		c1.6,0.9,1,2.7,1.7,4c0.3,0.6-0.2,2.5-2,2.6c-4.2,0.2-1.5,2-0.5,2.9c3.6,3.3,6,2.9,7.9-1.5c0.7-1.6,1.5-1.8,2.5-1.2
		c2.5,1.5,4.8,3.3,7.2,4.9c1.3,0.9,0.6,1.6,0.1,2.8c-2.2,4.7,0.1,7,5.1,7.9c5,0.9,10.1,2.6,14.7,5.2c1.6,0.9,3,2,4.9,1.9
		c5.8-0.3,10.4,2.9,13.5,6.8c3.5,4.4,8,4.7,12.5,6.3c6.6,2.3,13.3,5.7,17.5,11c2.1,2.7,2.7,6.1,6.9,6.4c1,0.1,1.4,1.5,1.1,2.5
		c-0.8,2.8,1.6,3.6,3.1,4.3c1.9,1,3.4,1.5,4.8,3.6c1.9,2.8,2.9-0.7,4.1-1.9l-0.1,0.1c3.3,0.3,6.1,2.1,9,3.4c1.2,0.5,1.7,1.7,3.1,0.2
		c1.1-1.3,1.3-2.2,0-3.3c-0.1-0.1-0.3-0.2-0.4-0.3c-0.7-1.9-1.5-4.3,0.6-5.3c1.5-0.7,4,0.6,4.7,2.2c1.5,3.1,2.8,5.4,6.9,5.6
		c1.8,0.1,3.7,3.2,3.1,5c-1.1,2.9,0,3.6,2.3,4.5c2.6,1,2.1,2.8,1.1,4.8c-0.6,1.1-1.5,1.8,1.4,2.7c5.3,1.7,10.1-2.1,15.1,0.4
		c1.5,0.8,2.2,2.1,1.9,2.8c-1.8,4.3,1.8,4,3.8,4.1c2.2,0.2,4.3,0.5,6,1.9c2.8,2.2,4.9,3.8,7.5-0.7c1.1-1.8,3.3,0.5,4.5,1.8
		c1.5,1.6,0.1,2.9-1.1,2.9c-3.9,0.3-1.8,2.4-1.1,3.5c0.9,1.5,1.7,2.5,1,4.7c-0.9,2.9,5.5,5.4,8.8,3.2c1.8-1.2,3.2-1.6,4.8-0.3
		c4.8,4.1,11.6,4.8,16.2,9.3c0.8,0.8,2.1,2.2,3.9,1.3c6.3-3.3,8.7,1.8,12.8,5c4.5,3.4,7.8,9.5,14.7,9.5c0.4,0,1.2,0.4,1.2,0.4
		c-2.3,7.6,6.4,5.9,8.6,9.8c0.7,1.2,3.3,2.5,5.1,3.7c2.9,2,6,3.8,9.7,1.5c1.8-1.1,3.7-1,4.8,0.9c2,3.3,4.4,2.9,7.1,1.2
		c1.5-1,3.2-0.8,4.7-0.2c0.9,0.4,1.4,1.3,1.3,2.4c-0.1,1.2-1,1.4-1.8,1.1c-4.1-1.2-4.5,2.5-6.9,4.9c6.3-2.3,13.2,2.4,18.2,6.2
		c3.8,2.9,6.2,6.3,9,9.7c0.8,0.9,2.5,1.1,5.2,2.3c-3.1,0-4.8,0-6.5,0c-239,0-477.9,0-716.9,0.1c-5.3,0-6.8-1.4-6.3-6.5
		c0.5-4.6,0.1-9.3,0.1-14c0-1.7,0-3.3,1.2-4.6c0.7-5-0.5-10.1,0.3-15.1C1.4,467.7,0.8,467.1,0,466.7z"/>
</g>
<path class="st1" d="M332.7,141.8c3.2,0.5,5.6,2.4,7.7,4.5c1.4,1.4-0.1,3.4-0.9,5c-0.4,0.8-1.3,2.1-2.2,1.3
	c-2.8-2.3-6.6-3.9-7.8-7.7C328.7,142.4,330.4,141.5,332.7,141.8z"/>
<path class="st1" d="M523.8,380.9c2.6-0.5,4.2,0.8,6,1.4c2.4,0.8,4.6,2.3,3.9,5.4c-0.8,3.5-4.4,1.2-6.4,2.6
	c-0.7,0.5-1.7-1.2-1.5-2.5C526,385.4,525.3,383.3,523.8,380.9z"/>
<path class="st1" d="M399.8,180.6c-1.2,1.8,1.1,5.8-3.2,5.1c-2.4-0.4-3.3-3.2-4.8-5c2.1-1,4.1-2.3,6.4-2.7
	C400.5,177.4,399.3,179.7,399.8,180.6z"/>
<path d="M574.7,0c-3.5,3.7-8.1,1.9-11.9,1.5c-3-0.3-6.1-0.4-9.1-0.7c3.3-2.2,7.1-1.3,10.3-0.8C567.7,0.7,571.1,0.6,574.7,0z"/>
<path d="M792.5,0.8c-2.4,2.1-5.3,1-7.9,0.9c-5.7-0.2-11.4,1.1-17-0.7C776,0.9,784.2,0.9,792.5,0.8z"/>
<path class="st1" d="M731.8,497.1c0.8,2.7,3.2,3.3,4.5,5.1c0.4,0.5-1,1.7-2,1.4c-2.1-0.6-4.5-1-5.4-3.2
	C728.7,499.9,730.5,498.5,731.8,497.1z"/>
<path class="st1" d="M456.6,341.1c-1.2,1.6-2.4,4.1-3.4,4c-2.2-0.2-1.6-3-2.4-4.6c-0.7-1.4,0.6-1.8,1.9-1.8
	C454.8,338.6,455.4,340.2,456.6,341.1z"/>
<path d="M0,466.7c0.6,0.1,1.5-1.1,1.5-0.2c0.2,5.7,1.2,11.5-0.5,17.2C-1,478.1,1.4,472.3,0,466.7z"/>
<path d="M0.7,188.8c1.5-1.1,1.1,0.4,1.1,0.9c0,5,0.1,9.9,0,14.9c0,0.4,0.7,1.8-0.8,1.2c-0.4-0.1-0.6-0.7-1-1
	c1.1-1.9,1.2-4.2,0.7-6.2C-0.1,195.3,0,192.1,0.7,188.8z"/>
<path d="M668.7,0c-0.3,0.9,2.3,1.4,0.9,1.6c-4.7,0.5-9.4,0.1-14.1,0c-0.3,0-0.5-1-0.7-1.6C659.4,1.2,664,1.2,668.7,0z"/>
<path class="st1" d="M619.8,310.1c-0.3,1.8-1.1,2.7-2.6,2.6c-1.5-0.1-2.4-1-2.4-2.5c0-1.3,0.8-2.5,2-2.3
	C617.9,308.1,619.6,308.5,619.8,310.1z"/>
<path d="M553.8,0.8c-3.6,2.2-7.5,0.9-11.3,0.8c-0.9,0,0.3-1,0.2-1.5C546.5-0.7,550.1,0.3,553.8,0.8z"/>
<path class="st1" d="M610.5,431.7c2.1,0.1,3.2,0.9,3.2,2.7c0,1.5-1.4,1.7-2,1.2c-1.2-1.1-3.7,0-3.8-2.1
	C607.9,432.1,609.5,431.5,610.5,431.7z"/>
<path d="M763.7,1c-5.4,1.7-10.8,0.7-16.2,0.5c-0.9,0,0.3-1,0.2-1.5C752.9,1.8,758.4,0.2,763.7,1z"/>
<path d="M521.7,0c0.4,0.5,0.9,1,1.3,1.5c-3,0.4-6,0.8-8.9-0.2c0.2-0.4,0.4-0.9,0.6-1.3C517.1,0,519.4,0,521.7,0z"/>
<path d="M886.7,1c-4.8,1.1-9.5,2.1-14-1C877.3,0.3,882,0.7,886.7,1z"/>
<path d="M93.8,0c-4.2,3.6-9.4,1-14,2c-0.3-0.1-0.9-0.1-0.9-0.2c-0.1-0.9,0-0.9,0.5-1C84.2,0.8,89.1,1.1,93.8,0z"/>
<path d="M729.7,0c0.4,0.5,0.9,1,1.3,1.5c-1.7,1.1-8.9,0.1-10.3-1.5C723.7-1,726.7,2.3,729.7,0z"/>
<path class="st1" d="M216.6,209.7c2.7-2.2,4-3.8,6.3-2.3c0.4,0.3,0.8,1.5,0.7,1.6C221.8,210.5,219.8,209.5,216.6,209.7z"/>
<path class="st1" d="M196.1,192.9c1,1,3,0.8,3.3,2.4c0.2,0.8-1,1.5-2.1,1.5c-1.6,0-2.4-0.8-2.5-2.3
	C194.7,193.6,194.9,192.8,196.1,192.9z"/>
<path d="M589.7,0c-4.7,1.4-9.3,1.4-14,0C580.4,0,585.1,0,589.7,0z"/>
<path d="M123.8,0c-4.3,1.4-8.7,1.4-13,0C115.1,0,119.5,0,123.8,0z"/>
<path class="st1" d="M100.7,143.7c-0.1,1.2-1,1-1.8,1.1c-1.5,0.1-2.7-0.4-2.9-1.9c-0.2-1.2,1-1,1.7-1.1
	C99.2,141.7,100.2,142.2,100.7,143.7z"/>
<path class="st1" d="M440.9,211.5c1.7-0.4,3.5-1.6,4.8,0.4c0.2,0.4-0.1,1.6-0.4,1.7C443.3,214.2,442.1,212.9,440.9,211.5z"/>
<path d="M687.7,0.7c-2.8,0.4-5.5,0.8-8.3,1.1c-1.8,0.2-1.2-0.9-0.7-1.8c1.4,0.4,2.6,1.4,4.3,0.2C684.3-0.6,686.3-0.9,687.7,0.7z"/>
<path class="st1" d="M701.9,361.3c1.4-2,3-2,4.5-1.1c0.6,0.4,0.6,1.7-0.1,2.1C704.6,363.5,703.4,361.7,701.9,361.3z"/>
<path d="M820.5,0.8c-4,1.6-7.9,1.7-11.9-0.1C812.6,0.8,816.6,0.8,820.5,0.8z"/>
<path class="st1" d="M740.6,502.7c1,0,2.1-0.1,2.1,1.4c0,0.9-0.3,1.6-1.3,1.6c-1.3,0-2.3-0.6-2.5-1.9
	C738.7,502.6,739.8,502.8,740.6,502.7z"/>
<path class="st1" d="M750.6,389c2.4-0.5,4-0.6,4.9,1.2c0.3,0.6,0,1.2-0.7,1.4C752.7,392.1,752,390.4,750.6,389z"/>
<path class="st1" d="M818.5,420.1c-0.5,0.8-1.1,1.8-2.2,1.5c-0.6-0.2-1.5-1.1-1.5-1.7c-0.1-1.5,1.3-1.1,2.2-1.1
	C817.8,418.7,818.7,418.7,818.5,420.1z"/>
<path d="M219.8,0c-3.3,1.3-6.7,1.3-10,0C213.1,0,216.5,0,219.8,0z"/>
<path class="st1" d="M722.5,494.9c-3.8-1.8-3.8-3.3-1.9-5.3C722.7,490.7,721,492.6,722.5,494.9z"/>
<path d="M1,118.8c1.2,3.3,1.5,6.6-0.2,9.8C0.9,125.4,0.9,122.1,1,118.8z"/>
<path d="M714.7,0c0.1,2.1-1.4,1.8-2.7,1.8c-0.9,0-2.2,0.1-1.4-1.5l0-0.1C711.9-0.4,713.3-0.2,714.7,0z"/>
<path class="st1" d="M346.7,281.3c-0.6,0.4-1.2,1.2-1.9,1.3c-1.1,0.1-1.7-0.8-1.9-1.8c-0.1-0.9,0.7-0.9,1.3-1
	C345.3,279.6,346,280.4,346.7,281.3z"/>
<path d="M0,241.8c1.8,2.1,0,5.1,1.6,7.3c0,0.1-1-0.3-1.6-0.4C0,246.4,0,244.1,0,241.8z"/>
<path d="M0,348.7c0.3-0.3,0.6-0.7,0.9-1c1-1,0.9,0.1,0.9,0.5c0.1,1.8,0.3,3.6-1.8,4.5C0,351.4,0,350.1,0,348.7z"/>
<path d="M710.6,0.2C710.6,0.2,710.6,0.3,710.6,0.2c-3,0.7-5.9,1.3-8.9-0.2C704.7-0.2,707.6-0.4,710.6,0.2z"/>
<path d="M312.8,0c-1,3.8-3.9,1.3-5.9,1.6c-1.4,0.2-0.1-1-0.1-1.6C308.8,1.1,310.8,1.1,312.8,0z"/>
<path d="M346.6,0.8c-2.6,1.7-5.2,1.4-7.8,0.2C341.4,0.9,344,0.9,346.6,0.8z"/>
<path class="st1" d="M296.7,129.3c-0.5,0.3-1,0.7-1.6,1.2c-0.2-1.1-1.2-1.6-2-2.2c0.7-0.4,1.3-1.1,2-1.1
	C296.1,127.1,296.7,128,296.7,129.3z"/>
<path d="M419.7,0c-1.9,3.6-4.5,1.6-7,1C415.1,0.5,417.6,1.4,419.7,0z"/>
<path d="M0,230.8c0.6,1.1,1.5,2.2,1.7,3.3c0.3,2-1,0.9-1.7,0.6C0,233.4,0,232.1,0,230.8z"/>
<path class="st1" d="M686.4,471.1c-0.6,1.5-1.7,1.9-3.1,1.3c-0.2-0.1-0.5-1.1-0.3-1.2C684,470.4,685.2,470.5,686.4,471.1z"/>
<path d="M269.8,0.7c-2.3-0.1-4.8,1-7-0.7C265.1,0.2,267.6-1.1,269.8,0.7z"/>
<path d="M1.8,88C1,89.2,3.5,91.9,0,91.8C-0.2,90.1,0.4,88.9,1.8,88z"/>
<path d="M275.8,0c-0.2,2.2-1,2.4-5,1C272.5,0.7,274.3,1.1,275.8,0z"/>
<path d="M0.8,433.8c1.8,2.2,1.4,4.5,0.2,6.8C0.9,438.4,0.9,436.1,0.8,433.8z"/>
<path class="st1" d="M532.7,395.8c-1-0.5-2.1-1.1-1.8-2.5c0.2-0.7,1.1-0.6,1.6-0.2c1.5,0.9,0.4,1.9,0,2.8
	C532.6,395.8,532.7,395.8,532.7,395.8z"/>
<path class="st1" d="M674.2,343.8c-0.6-0.8-1.1-1.4-1.4-2c-0.1-0.2,0.4-0.9,0.7-1c1-0.2,1.5,0.6,1.8,1.2
	C675.5,342.3,674.8,343,674.2,343.8z"/>
<path d="M808.8,0.8c-2-0.3-4.2,0.8-6.1-0.8C804.7,0.2,807-1.2,808.8,0.8z"/>
<path d="M474.6,0.8c-1.9,1.6-3.8,1.6-5.7,0C470.8,0.8,472.7,0.8,474.6,0.8z"/>
<path d="M233.8,0c-1.7,1.3-3.3,1.3-5,0C230.5,0,232.1,0,233.8,0z"/>
<path d="M622.7,0c-1.5,1.6-3.3,0.6-5,0.7C619.2-1,621,0.1,622.7,0z"/>
<path class="st1" d="M66.9,122.8c0.3-1.1,0.9-1,1.6-1c0.6,0,1.4,0.1,0.7,1c-0.3,0.4-1,0.7-1.6,0.8C67.4,123.7,67.1,123,66.9,122.8z"
	/>
<path d="M0.8,146.9c1.7,1.6,1.3,3.2,0.2,4.8C0.9,150.2,0.9,148.6,0.8,146.9z"/>
<path class="st0" d="M349.1,156c0-3.5,0.7-5,3.6-3.8c2.6,1.1,5.8,0.2,8.2,2.5c0.3,0.3,1.6-0.2,1.9,0.2c2.1,2.4,4.8-2.4,6.2,0.1
	c1.4,2.5-3.4,1.3-3.3,3.9c0.1,2.6-1,2.8-3.8,2.1c-3.2-0.8-6.5-1.9-9.9-2.1C349.1,158.6,349.7,156.6,349.1,156z"/>
<path class="st0" d="M731.7,361.7c-3.7,0.1-6.8-1.2-9-4.3c-1.1-1.6-2.8-2.1-4.5-2.7c-3-1-4.2-2.8-3-5.9c6.1,2.8,10.8,8.3,18.4,8.2
	c-0.1,1.9-2.8,2.7-1.9,4.8L731.7,361.7z"/>
<path class="st0" d="M811.2,404.1c-4.3,2.6-7.7,4.7-9.9-1c-0.2-0.6-1.3-0.9-1.8-1.4c-0.8-0.9-3.2-0.6-2.6-2.3
	c0.4-1.2,2.3-0.8,3.7-0.9C805.4,398,806.9,402.6,811.2,404.1z"/>
<path class="st0" d="M131.8,20.3c0.2-1-1.7-2.7,0.4-3c1.4-0.3,1.6,1.8,2.1,2.8c0.9,2,0.9,4.5,3.2,5.7c1.2,0.6,2.9,1.4,1.7,2.6
	c-1,1-3.1,1.8-4.7,0.4C132,26.6,131.7,23.5,131.8,20.3z"/>
<path class="st0" d="M90.9,6.7c3.9-1.4,4.3-6.9,9.3-4.9c1,0.4,2.2,1.4,1.2,1.6C98,4.1,96.8,10.4,90.9,6.7z"/>
<path class="st0" d="M380.1,160.7c2.6,0.8,4.6,2.3,7.1,2.3c0.7,0,1.4,0.9,1.4,1.8c-0.1,1.2-1.1,0.9-1.9,1c-0.8,0.1-1.7-0.1-2.5,0
	C379.6,166.5,379.6,166.5,380.1,160.7z"/>
<path class="st0" d="M767.3,375.7c0.6,2.8,4.7,4.2,2.6,7c-1.2,1.5-3-0.3-4.2-1.5C763.3,378.7,765.5,377.4,767.3,375.7z"/>
<path class="st0" d="M731.6,361.8c1.4-1,2.7-1.8,3.5,0.8c0.7,2.1,1.4,4.2-0.7,5.7c-1.6,1.1-2.4-0.4-2.6-1.7
	c-0.3-1.6-0.1-3.3-0.1-4.9C731.7,361.7,731.6,361.8,731.6,361.8z"/>
<path class="st0" d="M328.5,129.9c-2.4,0.9-4.4,3.9-7.2,1.8c-0.9-0.7-0.9-2.7-0.3-3.2C323.8,126.5,325.8,129.5,328.5,129.9z"/>
<path class="st0" d="M457.7,214.8c0.6-1.1,1.2-2.2,1.8-3.4c0.5-1.2,0.9-2.7,2.5-2.4c1.5,0.3,1.8,1.6,1.8,3c-0.1,1.8-0.9,2.7-2.7,2.8
	C459.9,214.8,458.8,214.7,457.7,214.8C457.6,214.7,457.7,214.8,457.7,214.8z"/>
<path class="st0" d="M573.5,269.7c1.5,0.4,2.6,1.4,2.8,2.6c0.1,0.6-1.2,1.7-2.3,1.3c-1.2-0.5-3.2-0.3-3.1-2.2
	C571,270.8,572.7,270.3,573.5,269.7z"/>
<path class="st0" d="M313.8,123.2c-0.5,0.4-1.4,1.4-1.5,1.3c-1.2-0.9-3.5-0.8-3.3-3c0-0.6,0.7-1.7,1.6-1.2
	C311.8,120.8,313.5,121,313.8,123.2z"/>
<path class="st0" d="M434.5,193.1c0.8,0.8,2.4,0.4,2.3,2.2c-0.1,1.3-0.7,2.4-1.9,2.3c-1.5,0-2.2-1.2-2-2.7
	C432.9,193.9,433.4,193.2,434.5,193.1z"/>
<path class="st0" d="M421.7,187.8c-0.3,1.3-1.7,1.5-2.3,1.5c-1.6,0-1.7-1.5-1.6-2.8c0.1-0.7-0.2-1.8,1.2-1
	C420.1,186.1,421.5,186.3,421.7,187.8z"/>
<path class="st0" d="M832.6,414.6c-3.2-0.2-3.6-2.7-4.9-4.7C830.9,410,832.1,411.6,832.6,414.6z"/>
<path class="st0" d="M518.1,245.7c-1.2-0.1-2.2-0.8-1.9-1.7c0.4-0.9,1.5-1.8,2.5-2.2c0.8-0.3,2,0.5,1.5,1.7
	C519.8,244.6,519.8,246.2,518.1,245.7z"/>
<path class="st0" d="M536.9,248.8c1.1,0.4,1.8,1.2,1.8,2.5c0,1-0.4,1.5-1.4,1.4c-1.1-0.1-2.4-0.4-2-1.8
	C535.5,250.2,535.4,248.8,536.9,248.8z"/>
<path class="st0" d="M677.5,326.2c-1.2,1.7-2.5,2.2-4,0.7c-0.4-0.4-0.7-1.5-0.6-1.6C674.8,323.8,676,325.7,677.5,326.2z"/>
<path class="st0" d="M784.6,395.2c-0.8-1.8-2.6-2.7-1.3-4.6c0.2-0.3,0.7-0.3,1.1-0.5C784.8,391.6,786.6,392.8,784.6,395.2z"/>
<path class="st0" d="M237.2,74.9c0.4,0.7,1.1,1.5,1.2,2.3c0.1,0.4-0.9,1.4-1.5,1.5c-1.5,0.1-1.1-1.2-1.1-2.1
	C235.8,75.7,235.8,74.9,237.2,74.9z"/>
<path class="st0" d="M432.5,189.5c-1.7,0.1-3.2-0.7-4.5-2.3c1.6,0.3,3.2,0.7,4.8,1C432.6,188.7,432.5,189.1,432.5,189.5z"/>
<path class="st0" d="M866.7,440.2c0.7-0.7,1.1-1.7,2.1-1.4c0.6,0.2,1.1,1,1.6,1.5c-0.5,0.6-1,1.5-1.9,1.3
	C867.9,441.4,867.4,440.7,866.7,440.2z"/>
<path class="st0" d="M205.9,62.3c-0.9,0.6-1.5,1.2-2.2,1.4c-0.9,0.2-0.9-0.8-0.9-1.4c0-0.6,0-1.6,0.9-1.4
	C204.4,61.1,205.1,61.8,205.9,62.3z"/>
<path class="st0" d="M112.8,8.3c-0.6,0.2-1,0.5-1.4,0.5c-0.6,0.1-1.4,0.1-1.5-0.8c-0.2-0.9,0.5-1.3,1.1-1.1
	C111.6,7.1,112.1,7.7,112.8,8.3z"/>
<path class="st0" d="M540.1,406.5c1.4-3.2,1.4-5.5,4.7-4.4c1.6,0.5,3.9,0.1,5.5-0.8c1.9-1,3.1-0.1,4.5,0.5c0.9,0.4,1.9,1,1.6,2.2
	c-0.4,1.2-1.9,1-2.5,0.7c-2.5-1.5-4.1-0.8-6,1.2C545.9,407.9,543.6,404.5,540.1,406.5z"/>
<path class="st0" d="M399.1,326.8c5.2-3.8,9.4-1.1,13.7,0c1.2,0.3,2.6,1.1,1.6,2.9c-1,1.6-2.1,0.9-3.3,0.1c-1.6-1-2.9-4-5.3-0.3
	C404.8,330.7,401.8,328,399.1,326.8z"/>
<path class="st0" d="M139.6,172.8c2.3-0.5,4.2,0.5,4.8,2.4c0.6,1.9,0.3,4.2-0.1,6.1c-0.2,0.7-2,0.9-2.5-0.8c-0.6-2-0.9-4.1-3.3-4.9
	c-0.8-0.3-1.9-1-1.4-2.2C137.5,172.3,138.8,173,139.6,172.8z"/>
<path class="st0" d="M359.6,305c-2.6-2.5-4.4-5.1-7.9-4.3c-0.7,0.2-1.9,0.2-1.7-1c0.1-1,0.9-1.6,2-1.9
	C355.5,297,359.4,300.2,359.6,305z"/>
<path class="st0" d="M389.4,316.7c2.9-1.8,5.3-3.1,7.9-0.8c0.4,0.4,0.5,2.1,0.3,2.2C394.8,319.3,392.2,319,389.4,316.7z"/>
<path class="st0" d="M13.7,107.3c4.9-2.5,6.2,1.9,8.9,3.8C20.8,112.1,20.8,112.1,13.7,107.3z"/>
<path class="st0" d="M317.4,275.3c-0.3,0.2-0.6,0.4-0.8,0.4c-1.9-0.2-4.1,0.9-5.5-1.3c-0.4-0.7-0.3-1.4,0.5-1.5
	C313.9,272.5,316.2,272.5,317.4,275.3z"/>
<path class="st0" d="M256.4,237.6c-1.3,1.4-0.7,4.1-3.4,4.1c-1,0-1.6-0.7-0.9-1.5c1.1-1.4,0.7-3.9,3.1-4.2
	C255.7,235.9,256.6,236.7,256.4,237.6z"/>
<path class="st0" d="M107.2,158.8c-1.6-0.2-2.8-1.3-3-2.4c-0.2-1.2,1.3-1.9,2.4-1.5c1.1,0.4,2.9,0.5,2.9,2
	C109.7,158.1,108.5,158.8,107.2,158.8z"/>
<path class="st0" d="M239.2,227c1.6,1,3.6,1,3.4,2.9c-0.1,1.2-1.7,1.6-2.5,1.4c-1-0.2-2.8-0.6-2.2-2.4
	C238.1,228.1,238.8,227.5,239.2,227z"/>
<path class="st0" d="M493.8,379c2.4-0.5,3.6,2.4,5.8,0.9c0.7-0.5,1.7,0.5,1.8,1.2c0.1,1.1-0.9,1.7-1.9,1.6
	C497.1,382.4,495.3,381.1,493.8,379z"/>
<path class="st0" d="M323.7,277.4c-0.2,2.1-1.9,1.2-3,1.3c-1,0.1-2.1,0.1-2-1.4c0.2-2.2,2.2-0.6,3.2-1.5
	C322.8,275.2,323.9,276,323.7,277.4z"/>
<path class="st0" d="M264.1,246.4c2.4-0.8,4-1.2,5.2,0.4c0.6,0.7-0.3,1.3-0.7,1.5C266.8,249.2,265.9,247.8,264.1,246.4z"/>
<path class="st0" d="M293,263.4c1.6-2.4,3-2.3,4.6,0C296,263.9,294.6,263.9,293,263.4z"/>
<path class="st0" d="M376,312c1.5-0.1,2.8-0.9,3.7,0.6c0.1,0.2-0.1,0.7-0.3,0.8C378,314.1,376.9,313.7,376,312z"/>
<path class="st0" d="M662.5,471c-1,1.7-2.1,2.1-3.4,1.3c-0.2-0.1-0.3-0.7-0.2-0.8C659.8,470.1,661.1,470.8,662.5,471z"/>
<path class="st0" d="M548.1,410.1c1.2-0.5,2.4-0.7,3.5,0.2c0.1,0.1-0.1,1.1-0.4,1.2C549.8,412,548.6,411.6,548.1,410.1z"/>
<path class="st0" d="M82.7,143.8c0,0.9-0.7,1.4-1.4,1.8c-0.6,0.4-1.3,0.2-1.4-0.6c-0.1-1,0.7-1.5,1.3-1.9
	C81.9,142.6,82.5,142.8,82.7,143.8z"/>
<path class="st0" d="M633.8,460.4c-2.2,0.5-2.7-0.5-3-1.6c-0.1-0.2,0.5-0.9,0.7-0.9C633.2,458,632.5,459.6,633.8,460.4z"/>
</svg>
