<?xml version="1.0" encoding="utf-8"?>
<!-- Generator: Adobe Illustrator 27.9.2, SVG Export Plug-In . SVG Version: 6.00 Build 0)  -->
<svg version="1.1" id="Layer_1" xmlns="http://www.w3.org/2000/svg" xmlns:xlink="http://www.w3.org/1999/xlink" x="0px" y="0px"
	 viewBox="0 0 619.2 609.4" style="enable-background:new 0 0 619.2 609.4;" xml:space="preserve">
<style type="text/css">
	.st0{fill:#0039A5;}
	.st1{fill:#C50D31;}
	.st2{fill:#0139A6;}
	.st3{fill:#ACBEE1;}
	.st4{fill:#DAE2F1;}
	.st5{fill:#D6DFF0;}
	.st6{fill:#2858B3;}
	.st7{fill:#6184C7;}
	.st8{fill:#2757B3;}
	.st9{fill:#2455B2;}
	.st10{fill:#FEFEFE;}
	.st11{fill:#FCFDFD;}
	.st12{fill:#FAFBFD;}
	.st13{fill:#FBFCFD;}
	.st14{fill:#F7F8FB;}
	.st15{fill:#F9FAFC;}
	.st16{fill:#F8F9FC;}
	.st17{fill:#F0F3F9;}
	.st18{fill:#EEF2F8;}
	.st19{fill:#B2C3E4;}
	.st20{fill:#A7BBE0;}
	.st21{fill:#BECDE8;}
	.st22{fill:#6A8BCB;}
	.st23{fill:#7997D0;}
	.st24{fill:#4870BE;}
</style>
<g>
	<path class="st0" d="M140.7,46.9c27.8,1.4,53.5-5.5,78.3-17.7c60-29.5,120.7-30.2,180.7-0.8c29.3,14.4,59.5,20,91.5,18.6
		c10.5-0.4,10.6,0,6.7,10c-6.6,16.8-16.5,30.8-32.9,39.3c-4.9,2.5-5.4,8.3-9.2,11.2c-10.2,7.9-10.5,18.9-10.6,30.3
		c-0.4,41.5-15.4,75.9-50,100.3c-5.9,4.2-8,10.4-9.7,16.9c-2,7.4-3.7,14.8-6,22.1c-9,27.5-28.8,41.2-56.9,44.3
		c-12.6,1.4-25.2,0.8-37.4-2.3c-21.4-5.5-35.7-19.1-43.2-39.8c-1.3-3.7-2.8-7.4-3.4-11.3c-2.5-16.3-10.5-28.2-23.7-38.9
		c-25.7-20.7-37-49.7-39-82.4c-0.1-2-0.7-4-0.3-5.9c3.8-17.2-6.7-29-15.6-41.4c-1.2-1.7-3-2.5-4.7-3.4c-17.9-9.9-28-25.7-34.3-44.6
		c-1.3-3.9-0.1-4.8,3.5-4.6C129.8,47,135.3,46.9,140.7,46.9z"/>
	<path class="st1" d="M311.3,599.5c-68.4,0-136.8-0.1-205.1,0.1c-6.2,0-7.8-1.6-7.6-7.7c0.5-13.7,0.1-13.7,13.6-13.7
		c134,0,268.1,0.1,402.1-0.2c6.8,0,9.5,1.1,9.1,8.6c-0.7,12.8-0.2,12.8-12.8,12.8C444.1,599.5,377.7,599.5,311.3,599.5z"/>
	<path class="st0" d="M357.6,403.6c12.5,3.5,14.9,11.6,14.8,21.6c-0.1,5.9,0.6,11.8,1.2,17.7c0.4,3.6-0.9,4.7-4.4,4.6
		c-7.1-0.2-14.3-0.2-21.4,0c-3.8,0.1-5.2-1.3-5.3-5c-0.2-6.6-0.9-13.3-1.2-19.9c-0.2-4.1-1.5-8-6.1-7.7c-6.2,0.4-7.2-3.7-8.8-7.9
		c-1.5-4.1-5.3-9.2-4.1-12.1c1.7-4.1,7.9-1.5,12.1-1.6c8.1-0.3,7.2-6.1,7.3-11.1c0.1-5.1-0.6-9.4-8-9.4
		c-17.7,0.1-17.7-0.2-17.7,17.4c0,17-0.2,34,0.1,51.1c0.1,5.3-1.5,6.8-6.6,6.4c-6.4-0.4-12.8-0.2-19.2-0.1c-3.2,0.1-4.2-1-4.2-4.2
		c0.1-29.6,0.1-59.2,0-88.8c0-3.1,0.9-4.4,4.2-4.4c21.7,0.3,43.4,0.1,65.1,0.7c10.6,0.3,15.3,5.4,17.3,15.8
		c1.4,7.1,1.2,14.2,0.1,21.3C371.2,395.7,367.4,401,357.6,403.6z"/>
	<path class="st0" d="M425.8,447.4c-6.7,0-13.3,0.1-20,0c-11-0.3-18.1-4.7-21.2-15.2c-6.5-22-6.5-44.3-0.1-66.4
		c2.7-9.3,9.3-14.8,19.5-15.3c14.6-0.8,29.1-0.9,43.6-0.1c14.2,0.8,20.5,6.9,22,21c1.5,14.8,3.2,12-10.7,12.3
		c-3.2,0.1-6.4-0.1-9.6,0c-4.2,0.1-8.4,0.7-8.3-5.8c0-2-1.6-4.6-4.1-4.7c-6.9-0.3-13.8-0.4-20.7,0c-3.3,0.2-3.7,3.7-4,6.3
		c-1.4,13-1.3,26.1,0,39.2c0.4,4.3,2.6,6.6,7.3,6.4c4.9-0.2,9.9-0.2,14.8,0c6.2,0.3,7.3-3.8,7.9-8.5c0.3-2.4-0.5-4.1-3.2-3.5
		c-6.3,1.3-7.8-2.9-9.6-7.5c-5.2-13.1-5.3-13.1,8.5-13.1c9.6,0,19.3,0.1,28.9,0c2.8,0,4.8,0.2,4.7,3.8c-0.3,11.1,0.5,22.2-2.8,33.1
		c-3.7,12.4-10.3,17.6-23,17.9C439.1,447.5,432.5,447.4,425.8,447.4z"/>
	<path class="st0" d="M44.7,392.6c14.8,0,28.4,0,41.9,0c3,0,5.3,0.1,5.2,4.2c-0.1,10.8,0.4,21.7-2.6,32.3
		c-3.6,12.6-10.5,18.1-23.4,18.3c-13.3,0.2-26.6,0-40,0c-10.4,0-17.7-5-20.7-14.7c-6.9-22.2-6.8-44.7-0.2-67
		c2.7-9.2,9.2-14.8,19.5-15.2c16-0.6,32-1,48,0.3c7.3,0.6,12.3,4.6,15.1,11.4c2.2,5.3,2.7,10.9,3.2,16.6c0.4,4.1-1.1,5.1-4.9,5
		c-4.9-0.3-9.9-0.2-14.8,0c-5,0.1-7.9-0.2-10.6-6.4c-3.8-8.9-14-3-21.2-4.3c-3.8-0.7-5.9,1.6-6.5,5.4c-2,13.7-2,27.5,0,41.2
		c0.5,3.8,2.6,5.6,6.5,5.5c5.2-0.1,10.4-0.1,15.5,0.1c5,0.2,7-2.7,7.6-7.1c0.4-3,0.4-5.7-3.8-4.9c-5,0.9-6.9-1.8-8.2-6
		C49,402.5,46.9,398,44.7,392.6z"/>
	<path class="st0" d="M139.9,562.8c-7.9,0-15.8,0.3-23.7-0.1c-10.6-0.4-14.9-4.5-16.9-14.9c-3.4-17.9-3.4-17.9,14.2-17.9
		c2,0,4,0.1,5.9,0c4.2-0.4,7.3,0.1,6.8,5.6c-0.4,4.2,2.3,5.4,6.2,5.3c5.7-0.2,11.4-0.2,17,0c4.2,0.1,6.5-1.3,6.4-5.9
		c0-4.1-0.7-7.2-5.7-7.8c-11-1.2-22.1-2.4-33-4c-10.6-1.5-15.2-6-17-16.5c-1.5-8.8-1.6-17.7,1-26.4c2.8-9.6,8.1-14.3,18.1-14.5
		c14.8-0.4,29.6-0.5,44.4,0.1c13.6,0.5,18.4,7.1,19.3,23.5c0.4,6.4-1,9.4-8,8.3c-3.4-0.5-6.9-0.2-10.3-0.1
		c-4.9,0.2-9.9,1.1-10.1-6.5c-0.1-3.8-4-3.3-6.5-3c-6.5,1-14.2-3.3-19.5,2.5c-3.4,3.7,0,9.3,5.3,10c11.2,1.4,22.5,2.7,33.8,4.1
		c9.1,1.1,14.3,6.6,15.7,15.2c1.6,9.8,1.9,19.7-1.1,29.3c-2.8,9.3-8.1,13.3-17.9,13.7C156.2,563.1,148,562.9,139.9,562.8
		C139.9,562.8,139.9,562.8,139.9,562.8z"/>
	<path class="st0" d="M443.4,514.3c0-14.3,0.2-28.6-0.1-42.9c-0.1-4.6,1.3-5.9,5.8-5.8c22.9,0.2,45.9,0.2,68.8,0
		c4.4,0,5.2,1.5,5.3,5.5c0.3,17.3,0.4,17.3-17,17.3c-9.4,0-18.8,0.3-28.1-0.1c-5.3-0.2-4.9,3.2-4.4,6.2c0.5,3.2-2.9,8.7,4.2,8.7
		c0.2,0,0.5,0,0.7,0c16,0.8,15.8,0.9,21.5,16.2c1.6,4.5,0.2,5-3.7,4.9c-5.9-0.2-11.8,0.1-17.8-0.1c-3.6-0.1-5.2,0.6-5.2,4.8
		c-0.3,11.4-0.5,11.4,10.7,11.4c11.4,0,22.7,0.1,34-0.1c3.8-0.1,5,0.9,5.1,4.9c0.5,17.9,0.7,17.9-17.2,17.9c-19,0-38-0.1-57,0.1
		c-4.5,0.1-5.9-1.2-5.8-5.8C443.6,543,443.4,528.6,443.4,514.3z"/>
	<path class="st0" d="M156.6,408.6c-7.1,0-14.5,0.2-21.9-0.1c-4.1-0.2-5.5,0.9-5.5,5.3c0,11.1-0.3,11.1,10.7,11.1
		c11.4,0,22.7,0.2,34-0.1c4.3-0.1,5.3,1.3,5.3,5.5c0.3,17.1,0.4,17.1-16.6,17.1c-19,0-38-0.1-57,0.1c-4.4,0-6.4-0.5-6.4-5.8
		c0.3-28.6,0.2-57.3,0-85.9c0-4.6,1.2-5.8,5.8-5.8c22.7,0.2,45.4,0.2,68.1,0c4.1,0,6.1,0.6,6.1,5.6c0.2,17.5,0.4,17.5-16.9,17.5
		c-9.4,0-18.8,0.3-28.1-0.1c-5.6-0.3-5.4,3-4.9,6.5c0.4,3.2-2.5,9.6,4.6,8.1c14.2-3,19.2,4.9,21.9,16.5
		C156.3,405.4,157.5,406.6,156.6,408.6z"/>
	<path class="st0" d="M235.6,465.6c13.3,0,26.6,0.1,40-0.1c4.8-0.1,7.3,0,4.9,6.3c-6.3,16.7-6,17.2-24.1,16.6
		c-7.4-0.2-9.5,1.5-9.2,9.1c0.6,19.7,0.1,39.5,0.3,59.2c0.1,4.6-0.9,6.7-6,6.3c-6.1-0.5-12.4-0.5-18.5,0c-5.5,0.4-6.4-1.8-6.4-6.7
		c0.3-20.5-0.1-40.9,0.2-61.4c0.1-5.4-1.5-6.8-6.6-6.4c-5.9,0.4-11.8-0.1-17.7,0.2c-3.2,0.1-4-1-4.2-4.2
		c-1.1-18.9-1.2-18.9,17.7-18.9C215.8,465.6,225.7,465.6,235.6,465.6z"/>
	<path class="st0" d="M389.5,465.6c13.3,0,26.6,0.2,40-0.1c4.9-0.1,6.1,1.5,6.1,6.3c0,16.8,0.2,16.8-16.9,16.8
		c-11.2,0-11.2,0-11.2,11.1c0,19-0.1,38,0.1,57c0,4.5-0.7,6.7-5.9,6.3c-6.1-0.5-12.3-0.4-18.5,0c-4.7,0.3-5.7-1.4-5.7-5.8
		c0.2-20.7-0.1-41.4,0.2-62.2c0.1-5.2-1.4-7.3-6.5-6.4c-1.2,0.2-2.5,0-3.7,0c-17.5,0-17.4-0.1-22.9-17.1c-1.5-4.7-0.9-6.1,4.2-6
		C362.4,465.8,376,465.6,389.5,465.6z"/>
	<path class="st2" d="M479.4,398.5c0-14.3,0.1-28.6-0.1-42.9c-0.1-4,1-5.8,5.3-5.6c6.9,0.3,13.8,0.3,20.7,0c3.7-0.1,4.5,1.3,4.5,4.7
		c-0.1,29.3-0.1,58.7,0,88c0,4.2-1.6,4.9-5.2,4.7c-8.1-0.3-18.6,2.7-23.7-1.3c-5.3-4.2-1.3-15.2-1.6-23.2
		C479.1,414.7,479.4,406.6,479.4,398.5z"/>
	<path class="st3" d="M537.6,548.3c0.8-0.2,1.6-0.4,2.4-0.6c2.8-3.2,5.2-2.2,7.5,0.6c-0.1,0.7-0.4,1.2-0.8,1.7
		c-4.5,1.4-4.1,4.9-3.6,8.4c-0.1,0.7-0.4,1.3-0.9,1.8c-0.7,0.3-1.3,0.1-1.8-0.5c-2.1,0.3-2.6-1-2.5-2.8
		C536,554.1,537.2,551.2,537.6,548.3z"/>
	<path class="st4" d="M546.6,549.7c0.1-0.7,0.1-1.4,0.2-2c0.8-0.7,1.5-0.6,2.3,0c1.3,0.7,2.6,1.3,3.9,2c-0.6,2.9,0.5,6.1-1.8,8.7
		l0,0c-1,0.6-2,0.8-3.1,0.3c-1.8-1.6-2.5-3.6-2.7-6C545.5,551.6,545.8,550.6,546.6,549.7z"/>
	<path class="st5" d="M548.6,558.4c0.9,0,1.7,0,2.6,0.1c-0.5,0.5-1,0.9-1.4,1.4c-2.4,2.5-4.9,3.9-7.6,0.3c0-0.7,0.1-1.4,0.1-2.1
		c-0.7-1.1-0.7-2.1,0.1-3.1C545.8,553.5,546.5,557.2,548.6,558.4z"/>
	<path class="st6" d="M549.1,547.7c-0.8,0-1.5,0-2.3,0c-2.3,0-4.6-2.1-6.8,0C543.4,543.3,545.8,543.3,549.1,547.7z"/>
	<path class="st7" d="M551.2,558.4c0.5-2.9-0.7-6.2,1.8-8.7C554.4,553,556.6,556.4,551.2,558.4z"/>
	<path class="st8" d="M537.6,548.3c0.1,2.9,0.2,5.8,0.3,8.7C533.2,554.3,536,551.2,537.6,548.3z"/>
	<path class="st9" d="M542.2,560.1c2.6,2.3,5.1,0.5,7.6-0.3c-3.1,5.2-6.2,5.1-9.3,0C541,559.9,541.6,560,542.2,560.1z"/>
	<path class="st10" d="M145.2,63.1c9.1-0.7,16.9-1.1,24.6-1.8c20.5-2.1,39.1-9.6,56.9-19.5c14.7-8.2,30.1-14.6,46.8-17.6
		c3.7-0.7,5.6,0.1,8,2.9c14.1,16.8,11,36.5,9.4,55.7c-0.6,7.4-7.4,8.7-13.1,3.8c-7.4-6.2-9.9-13.5-7.4-22.9c1.1-4,1.5-8.2,2.4-13
		c-9,3.9-15,9.9-16,18.9c-1,8.4-5.4,12.4-12.8,14.7c-5,1.5-9,6.3-16.3,3.5c6.7,9.7-0.5,15.5-4.5,22.2c-8.5,14.3-14.9,29.4-18.6,45.6
		c-0.6,2.6-0.7,4.8-4.4,5.7c-3.7,0.9-1.3,4.6-0.8,6.7c4.4,16.7,12.2,31.9,26.2,41.8c19.1,13.5,30.8,30.6,33.6,53.8
		c0.5,4.1,2.2,8.1,3.7,12c8.1,19.9,26.1,26.4,45.2,16.4c1.6-0.8,2.9-3,5.2-1.8c-3.5,15.8-14,21.7-28.6,16.1
		c-12.4-4.8-20.7-13.9-25.9-25.9c-3.6-8.4-6.1-17.2-7.8-26.1c-2.4-12.8-8.1-23.3-18.9-31.4c-14.9-11.1-28.5-24-35.1-42
		c-10-27.3-12.4-54.1,7.1-79.1c7.3-9.3,13.7-19.3,23.7-26.1c3.7-2.6,6.4-6.1,8.9-10.3c-8.3,3.1-16.6,5.8-26.2,7
		c1.6-4.1,3-7.5,4.9-12.3c-16,5.8-31.1,10.8-47.3,10.6c0.3,0.8,0.4,1.6,0.6,1.6c14.1,1.5,14.8,16.1,22.9,23.5
		c2.6,2.4-1.8,5.5-3.5,7.8c-1.9,2.7-3.4-0.5-4.6-1.5c-6.1-5.2-7.3-14.5-13.2-18.9c-5.9-4.4-13.6-6.8-18.9-12.5
		C149.6,68.6,147.8,66.3,145.2,63.1z"/>
	<path class="st10" d="M234.3,192.4c8.4-4.6,17.5-7.5,27-9.6c-2.8-2.3-6.1-2.1-9.2-2.5c-6.6-1.3-13.2-0.2-19.8-0.7
		c-1.8-0.1-4.6,1.6-5.3-1.9c7.9-3.3,16.5-4,26.5-6.2c-10.1-3.9-19-5-27.9-6.1c-0.8-2.8,2.2-1.4,2.8-2.5c6.2-1.5,12.5-2,20.1-2
		c-5.7-4.7-12.2-4.6-17.5-7.4c8.8-9.1,16.3-11.2,35.9-9.8c-0.8-5.3-5.2-8-8.7-11.6c6.3-3.5,12.2-7.8,18.9-1.4
		c0.9,0.9,1.7,0.8,2.5,0.1c5.1-4.5,11.6-5,18.2-6.1c-1.1-4-5.2-3.8-7.2-6.8c3.1-2.2,6.9-1.5,10.2-2.7c-1.5-5.5-7-6.2-11.4-8.8
		c9.2-3.8,11.8-3,21,5.9c9-9,11.8-9.8,20.6-5.8c-4,2.6-8.8,4-10.9,8.7c3.4,0.7,6.6,1.4,10.2,2.1c-2.1,3.6-6.8,3-8,6.7
		c17.5,3.8,18.5,4.8,20.9,21.7c-9.7,0.5-18.8,3.8-27.8,7.2c-3.5,1.3-6.4,1.3-9.9,0c-7.8-3-15.7-6-24.1-6.8c-6.9-0.6-8.3,1.3-5.5,7.3
		c2.1,4.4,4.5,8.7,7.8,12.1c3.4-0.3,1.5-6.9,6.1-4.8c4.5,2,7.3,5.7,8.2,10.7c0.8,4.2-2.4,4.5-5.3,4.5c1.6,5.3,6.8,6.7,8.3,11.9
		c-8.8-1.8-16.7-4.4-26.1-8.6c2.8,4.9,4.7,8.2,7.1,12.4c-14.5,0.9-28.2,1.7-41.8,2.5C238.2,194.2,235.5,196.3,234.3,192.4z"/>
	<path class="st10" d="M475.4,62.9c-12.1,8.2-23.8,7.2-35.2,6.1c-11.4-1.1-22.5-4.3-33.5-8.7c-0.5,4.5,2.5,7,3.2,11.3
		c-14.2-3.9-27-10.1-40-17.1c-1.8,10.8,4.2,16.3,12,20.1c7.7,3.8,8.8,10.9,11.8,19c-11.8-7.4-22.9-12.3-34.6-16
		c-5-1.6-8.4-1.1-11.2,3.5c-1.3,2-3.2,3.8-5,5.4c-1.9,1.6-3.4,5.4-6.2,3.9c-3.2-1.8-7.1-4.1-7.2-8.7c-0.3-11.3-1.5-22.8-0.3-34
		c0.9-8.8,7.5-15.8,12.3-23.2c1.2-1.9,3.6-0.5,5.5-0.2c16.5,2.5,31.8,8.8,46.1,17.1c23.8,13.6,49.1,21.1,76.6,21.3
		C470.8,62.7,472,62.7,475.4,62.9z"/>
	<path class="st11" d="M284.3,239.1c1.5,7.9,3.7,14.1,8.1,20.1c2.9-5.8,5.6-8.5,9.7-1.2c2.6,4.6,4.1,0.3,5.4-1.8
		c2.1-3.4,3.6-4.3,5.7,0.2c1.1,2.3,3.4,7.3,6.4,1.8c3.6-6.7,6-5.2,8.8,0.9c4.7-5.6,6.5-11.8,8-18.4c4.6,7,4.5,22.4,0.2,28.6
		c-1.2,1.6-2.2,2.6-4.1,1.3c-0.8-0.5-1.8-1.3-2.6-1.2c-13.5,2.2-27.2-1.4-40.5,1.2c-3.6,0.7-4.3-0.5-5.4-2.7
		C280.3,261.2,280.3,249.1,284.3,239.1z"/>
	<path class="st12" d="M329.8,221.7c-1.7-2.5-3.1-4.7-4.9-7.4c-2.4,2.7-4.5,5-7,7.7c-2.4-2.9-4.7-5.7-7.6-9.1
		c-2.5,3.1-4.9,5.9-7.5,9.1c-2.3-2.6-4.4-4.9-6.9-7.8c-1.7,2.5-3.3,4.8-4.7,6.9c-1.5,0.1-1.9-0.8-2.4-1.7
		c-6.8-11.6-6.2-12.5,7.1-13.2c11.3-0.7,22.6,0.2,33.9-0.1c6.7-0.1,7.7,2.2,5.1,7.6C333.6,216.5,332.8,219.4,329.8,221.7z"/>
	<path class="st12" d="M341.6,207.1c2.7,0,4.4-0.1,6,0c15.6,1.4,16.7-2.9,10.5,15.8c-1.8,5.4-5.1,10-8.7,14.4
		c-1,1.2-2.1,3.2-4.1,2.2c-1.7-0.8-0.7-2.6-0.7-4c-0.2-4.6-0.4-9.3-0.4-13.9C344.1,216.9,343,212.4,341.6,207.1z"/>
	<path class="st13" d="M279.1,207c-2.8,11.3-3.6,22.2-2.7,34.7c-10.7-9-14.9-19.4-17-30.8c-0.6-3,2-2.9,3.9-3
		C268.3,207.5,273.4,207.3,279.1,207z"/>
	<path class="st14" d="M358.1,112c6.9-4.9,7.9-19.7,20.7-10.6c-4.2,3.6-9,7-12.6,11.7c-1.6,2.2-18.3,2.4-20.2,0.6
		c-1.2-1.2-1.4-2.6-0.6-4c2.2-4.1,4.5-10,9.2-9.4C359,100.9,356.5,107.3,358.1,112z"/>
	<path class="st14" d="M241.9,101c6.8-2.2,13.1-4.6,15.7,5.2c0.6,2.2,2.3,4.3,5,4.8c0.4-0.4,0.8-0.7,0.9-1.1
		c0.8-3.3-1.5-9.1,2.9-9.4c5-0.4,7,5.4,9.2,9.5c0.9,1.6,0.6,3.8-1.6,4.1c-4.1,0.6-8.4,0.2-12.5,1.1c-5,1.1-6.9-2.4-9.6-5.2
		C248.8,106.8,245.4,104.1,241.9,101z"/>
	<path class="st12" d="M360.2,180.7c12.5-0.7,25-0.4,37.5,1.6c-1.8,10.4-4,11.8-13.5,8.2c-8.3-3.2-16.9-5-25.5-7.2
		C357.9,181.7,359.3,181.3,360.2,180.7z"/>
	<path class="st15" d="M404.9,107.3c-11.8,5.9-20.4,12.5-28.3,20.3c-3.8,3.7-7.1-2.3-11.1-2.8c5,0.4,7.6-2.3,10.2-5.9
		c3.9-5.5,9.5-9.1,15-12.8C395.5,102.8,398.8,106.3,404.9,107.3z"/>
	<path class="st16" d="M363.4,170.4c9.9-1.3,19.8-3.4,29.9-3.3c2.4,0,5.6-1.9,7,1.7c1,2.8,1.2,6.4-0.5,8.5c-1.8,2.2-4.9-0.1-7.4-0.6
		c-9.1-1.8-18.2-3.6-27.5-4C363.6,172.4,362.9,171.8,363.4,170.4z"/>
	<path class="st16" d="M397.8,161.3c-11.5,0-21.7,0-31.8,0c6.8-3.9,14.1-5.4,21.4-7.1C393.2,152.9,394.4,157.8,397.8,161.3z"/>
	<path class="st17" d="M374.7,141c-7.5-0.3-14.3,1.7-21.8,4c1.4-5.9,4.1-10.6,8.7-11.7C367.2,132,370.6,137.7,374.7,141z"/>
	<path class="st18" d="M325.9,175.6c-2.3,0.2-3.2-1.1-3.2-2.6c0-1.7,0.2-3.5,0.9-5c1.8-3.8,4.1-7.5,8.9-7.8c1.4-0.1,2.6,1.8,2.1,3.4
		C332.9,168.7,329.7,172.6,325.9,175.6z"/>
	<path class="st19" d="M227,177.7c5.1,2.4,10.6,0.5,15.8,1.1c3.1,0.4,6.4-0.6,9.3,1.5c-9.8,0-19.6,0-29.8,0
		C223.4,178.3,225.3,178.1,227,177.7z"/>
	<path class="st20" d="M234.3,192.4c1.6,2.2,4.1,0.6,6,1.6c-2.9,1.6-6,1.4-9.2,1C231.6,193,232.8,192.6,234.3,192.4z"/>
	<path class="st21" d="M360.2,180.7c-0.5,0.9-1,1.7-1.5,2.6c-1,0-1.9-0.1-2.9-0.1c-1-0.6-2.4-0.9-1.5-2.6
		C356.3,180.7,358.3,180.7,360.2,180.7z"/>
	<path class="st22" d="M354.4,180.6c0.5,0.9,1,1.7,1.5,2.6c-2,0.3-4.5,0.4-4.9-1.7C350.7,179.8,353.1,180.7,354.4,180.6z"/>
	<path class="st23" d="M363.4,170.4c0.5,0.8,0.9,1.6,1.4,2.4c-1.8,0.3-4.5,1.2-5-0.5C359.3,170.4,361.7,170.2,363.4,170.4z"/>
	<path class="st3" d="M228.4,162.9c-0.9,0.8-1.9,1.7-2.8,2.5c-0.9-0.1-1.8-0.2-2.7-0.3C224.1,162.9,226.2,162.7,228.4,162.9z"/>
	<path class="st0" d="M272.7,365.3c-2.7-9-9.2-14.3-19.1-14.8c-14.8-0.7-29.6-0.7-44.4,0c-9.8,0.5-16.5,5.6-19.2,14.6
		c-6.8,22.5-6.9,45.2,0.1,67.7c3,9.7,10.5,14.6,20.8,14.6c6.7,0,13.3,0,20,0c6.9,0,13.8,0,20.7,0c10.7,0.1,18.2-5.1,21.2-15.1
		C279.5,410,279.4,387.5,272.7,365.3z M245.2,418.9c-0.4,4.2-2.7,6-6.9,5.8c-3.4-0.2-6.9,0-10.4,0c-9.9,0-10.5-0.5-11.2-10.1
		c-0.4-5.1-0.1-10.3-0.1-15.5c0.2-6.9-0.5-13.7,0.6-20.6c1.2-6.9,6.3-5.9,10.1-5.1c5.9,1.3,15.3-5.3,17.4,5.1
		C247.5,391.8,246.6,405.4,245.2,418.9z"/>
	<path class="st0" d="M334.2,472c-1.6-4.8-4.7-7.1-10-6.9c-7.9,0.3-15.8,0.2-23.7,0c-4.5-0.1-7.6,1.6-9.1,5.9
		c-10.2,30.3-20.4,60.7-30.8,91.9c6.2,0,11.5,0,16.9,0c13.6,0,14,0.1,17.2-13.2c1.5-6.1,3.9-9,10.3-7.8c1.2,0.2,2.5,0,3.7,0
		c17.1,0,17.1,0,22.4,16.2c0.9,2.6,1.3,4.9,5.1,4.8c9.1-0.3,18.2-0.1,28.3-0.1C354.1,531.8,344.2,501.9,334.2,472z M303,520.8
		c2.8-9.5,5.4-18.6,8.1-27.6c0.5,0,0.9,0.1,1.4,0.1c2.6,9,5.2,18.1,8,27.5C314.4,520.8,309,520.8,303,520.8z"/>
	<path class="st0" d="M618.4,441.2c-8.3-24.4-16.2-49-24.5-73.5c-6.9-20.1-3.1-18.1-25.5-18.1c-2.2,0-4.4,0-6.7,0
		c-12.2,0-12.5,0.2-16.2,11.5c-8.1,24.5-16.3,49-24.4,73.5c-4.2,12.8-4.3,12.7,8.8,12.7c16.7,0,16.7,0,21.7-16.1c1-3.2,2.1-5,6-4.8
		c6.6,0.4,13.3,0.3,20,0c3.5-0.1,5.3,1,6.3,4.4c1.6,5.4,1.2,13,5.5,15.4c4.5,2.6,11.5,0.8,17.4,0.9c2.5,0,5-0.2,7.4,0.1
		C619.7,448.1,620,446.1,618.4,441.2z M559.6,405.2c1.5-9.4,4.8-18.1,9-27.1c2.6,8.9,5.1,17.8,7.8,27.1
		C570.5,405.2,565.3,405.2,559.6,405.2z"/>
	<path class="st0" d="M542.5,555.4c-0.1,0.9-0.1,1.7-0.2,2.6c-2.4-7.7-2.4-7.8,4.4-8.4c0,0.8-0.1,1.7-0.1,2.5
		C545.7,554,543.4,553.8,542.5,555.4z"/>
	<path class="st24" d="M542.5,555.4c-0.4-3.3,1.6-3.6,4.1-3.2c0.7,2,1.4,4.1,2.1,6.1C545.9,558.9,545.2,554.9,542.5,555.4z"/>
</g>
</svg>
